<?xml version="1.0" encoding="UTF-8"?>
<!DOCTYPE svg PUBLIC "-//W3C//DTD SVG 1.1//EN" "http://www.w3.org/Graphics/SVG/1.1/DTD/svg11.dtd">
<svg xmlns="http://www.w3.org/2000/svg" version="1.1" width="1439px" height="85px" style="shape-rendering:geometricPrecision; text-rendering:geometricPrecision; image-rendering:optimizeQuality; fill-rule:evenodd; clip-rule:evenodd" xmlns:xlink="http://www.w3.org/1999/xlink">
<g><path style="opacity:0.603" fill="#fefefc" d="M 1263.5,25.5 C 1299.83,25.3333 1336.17,25.5 1372.5,26C 1373,26.5 1373.5,27 1374,27.5C 1374.67,37.1667 1374.67,46.8333 1374,56.5C 1373.5,57 1373,57.5 1372.5,58C 1336.17,58.6667 1299.83,58.6667 1263.5,58C 1263,57.5 1262.5,57 1262,56.5C 1261.33,46.8333 1261.33,37.1667 1262,27.5C 1262.72,26.9558 1263.22,26.2891 1263.5,25.5 Z"/></g>
<g><path style="opacity:1" fill="#fdf6ec" d="M 1192.5,25.5 C 1213.5,25.3334 1234.5,25.5 1255.5,26C 1256,26.5 1256.5,27 1257,27.5C 1257.67,37.1667 1257.67,46.8333 1257,56.5C 1256.5,57 1256,57.5 1255.5,58C 1234.5,58.6667 1213.5,58.6667 1192.5,58C 1192,57.5 1191.5,57 1191,56.5C 1190.33,46.8333 1190.33,37.1667 1191,27.5C 1191.72,26.9558 1192.22,26.2891 1192.5,25.5 Z"/></g>
<g><path style="opacity:1" fill="#faf7ed" d="M 1263.5,27.5 C 1299.83,27.3333 1336.17,27.5 1372.5,28C 1373.65,37.0887 1373.82,46.2553 1373,55.5C 1336.57,56.6626 1300.07,56.8293 1263.5,56C 1262.18,46.5001 1262.18,37.0001 1263.5,27.5 Z"/></g>
<g><path style="opacity:0.712" fill="#010516" d="M 750.5,34.5 C 751.5,34.5 752.5,34.5 753.5,34.5C 753.5,39.5 753.5,44.5 753.5,49.5C 750.644,49.0717 747.644,48.905 744.5,49C 741.532,44.0779 742.532,40.2446 747.5,37.5C 749.895,38.5225 750.895,37.5225 750.5,34.5 Z M 747.5,40.5 C 750.513,41.3559 751.18,43.1892 749.5,46C 748.552,46.4828 747.552,46.6495 746.5,46.5C 746.325,44.3792 746.659,42.3792 747.5,40.5 Z"/></g>
<g><path style="opacity:1" fill="#ffa8a5" d="M 1210.5,35.5 C 1213.5,35.5 1216.5,35.5 1219.5,35.5C 1219.5,36.5 1219.5,37.5 1219.5,38.5C 1216.5,38.5 1213.5,38.5 1210.5,38.5C 1210.5,37.8333 1210.5,37.1667 1210.5,36.5C 1210.5,36.1667 1210.5,35.8333 1210.5,35.5 Z"/></g>
<g><path style="opacity:1" fill="#859bd6" d="M 1210.5,35.5 C 1210.5,35.8333 1210.5,36.1667 1210.5,36.5C 1209.57,37.5676 1209.23,38.901 1209.5,40.5C 1207.5,40.5 1205.5,40.5 1203.5,40.5C 1203.5,38.8333 1203.5,37.1667 1203.5,35.5C 1205.83,35.5 1208.17,35.5 1210.5,35.5 Z"/></g>
<g><path style="opacity:1" fill="#40424c" d="M 1227.5,37.5 C 1229.86,37.3367 1232.19,37.5034 1234.5,38C 1232.87,38.4935 1231.2,38.6602 1229.5,38.5C 1229.5,39.5 1229.5,40.5 1229.5,41.5C 1234.83,41.8333 1234.83,42.1667 1229.5,42.5C 1229.5,43.5 1229.5,44.5 1229.5,45.5C 1231.29,45.2148 1232.95,45.5481 1234.5,46.5C 1232.26,47.4742 1229.92,47.8076 1227.5,47.5C 1227.5,44.1667 1227.5,40.8333 1227.5,37.5 Z"/></g>
<g><path style="opacity:1" fill="#494b53" d="M 1235.5,37.5 C 1238.71,38.164 1240.88,40.164 1242,43.5C 1242.19,41.4233 1242.69,39.4233 1243.5,37.5C 1245.39,49.9947 1243.56,50.6614 1238,39.5C 1237.81,41.9005 1237.31,44.2338 1236.5,46.5C 1235.52,43.5719 1235.18,40.5719 1235.5,37.5 Z"/></g>
<g><path style="opacity:1" fill="#76777b" d="M 1318.5,45.5 C 1318.5,42.8333 1318.5,40.1667 1318.5,37.5C 1316.9,37.2322 1315.57,37.5655 1314.5,38.5C 1313.96,38.44 1313.62,38.1067 1313.5,37.5C 1315.4,36.5344 1317.4,36.2011 1319.5,36.5C 1319.81,39.7131 1319.48,42.7131 1318.5,45.5 Z"/></g>
<g><path style="opacity:1" fill="#10131f" d="M 1359.5,36.5 C 1360.2,39.5629 1360.87,42.7296 1361.5,46C 1361.17,46.1667 1360.83,46.3333 1360.5,46.5C 1359.51,43.2317 1359.18,39.8984 1359.5,36.5 Z"/></g>
<g><path style="opacity:0.725" fill="#010516" d="M 690.5,37.5 C 692.17,37.7512 693.67,38.4178 695,39.5C 698.795,36.5816 701.128,37.5816 702,42.5C 702.497,44.8098 702.663,47.1432 702.5,49.5C 701.167,49.5 699.833,49.5 698.5,49.5C 698.817,46.4281 698.484,43.4281 697.5,40.5C 696.914,40.7093 696.414,41.0426 696,41.5C 695.503,44.146 695.336,46.8127 695.5,49.5C 694.5,49.5 693.5,49.5 692.5,49.5C 692.892,46.2784 692.392,43.2784 691,40.5C 688.895,43.1066 688.062,46.1066 688.5,49.5C 687.5,49.5 686.5,49.5 685.5,49.5C 685.5,45.8333 685.5,42.1667 685.5,38.5C 686.822,38.33 687.989,38.6634 689,39.5C 689.717,38.9558 690.217,38.2891 690.5,37.5 Z"/></g>
<g><path style="opacity:0.749" fill="#010516" d="M 708.5,37.5 C 714.076,37.9736 716.243,40.9736 715,46.5C 711.996,50 708.663,50.3333 705,47.5C 703.581,43.0823 704.748,39.7489 708.5,37.5 Z M 708.5,40.5 C 713.007,41.8674 713.507,44.2007 710,47.5C 707.354,45.6332 706.854,43.2999 708.5,40.5 Z"/></g>
<g><path style="opacity:0.754" fill="#010516" d="M 721.5,37.5 C 728.881,39.1842 730.215,43.0176 725.5,49C 718.495,50.3236 715.995,47.4902 718,40.5C 718.985,39.1859 720.152,38.1859 721.5,37.5 Z M 721.5,40.5 C 726.038,41.9485 726.538,44.2818 723,47.5C 720.354,45.6332 719.854,43.2999 721.5,40.5 Z"/></g>
<g><path style="opacity:0.782" fill="#010516" d="M 734.5,37.5 C 738.916,37.416 741.25,39.5827 741.5,44C 740.392,49.023 737.392,50.6897 732.5,49C 728.49,44.2283 729.157,40.395 734.5,37.5 Z M 734.5,40.5 C 739.024,42.3271 739.357,44.6604 735.5,47.5C 733.239,45.5165 732.906,43.1831 734.5,40.5 Z"/></g>
<g><path style="opacity:0.709" fill="#010516" d="M 756.5,38.5 C 757.5,38.5 758.5,38.5 759.5,38.5C 759.338,40.5273 759.505,42.5273 760,44.5C 760.414,44.9574 760.914,45.2907 761.5,45.5C 763.171,43.4902 763.838,41.1569 763.5,38.5C 764.5,38.5 765.5,38.5 766.5,38.5C 766.79,42.9362 766.29,47.2695 765,51.5C 762.599,52.6023 760.099,52.769 757.5,52C 756.483,50.9505 756.316,49.7839 757,48.5C 758.819,50.5363 760.653,50.703 762.5,49C 760.324,48.8371 758.491,48.0037 757,46.5C 756.503,43.854 756.336,41.1873 756.5,38.5 Z"/></g>
<g><path style="opacity:1" fill="#141723" d="M 1297.5,38.5 C 1298.47,38.9867 1299.47,39.4867 1300.5,40C 1299.42,40.6739 1298.75,41.6739 1298.5,43C 1299.08,44.4459 1299.08,45.6126 1298.5,46.5C 1297.25,43.7278 1296.92,41.0611 1297.5,38.5 Z"/></g>
<g><path style="opacity:1" fill="#385bbd" d="M 1210.5,36.5 C 1210.5,37.1667 1210.5,37.8333 1210.5,38.5C 1210.5,38.8333 1210.5,39.1667 1210.5,39.5C 1210.5,40.1667 1210.5,40.8333 1210.5,41.5C 1207.94,41.8016 1205.61,41.4682 1203.5,40.5C 1205.5,40.5 1207.5,40.5 1209.5,40.5C 1209.23,38.901 1209.57,37.5676 1210.5,36.5 Z"/></g>
<g><path style="opacity:1" fill="#fc7b7a" d="M 1210.5,39.5 C 1222.5,40.1667 1222.5,40.8333 1210.5,41.5C 1210.5,40.8333 1210.5,40.1667 1210.5,39.5 Z"/></g>
<g><path style="opacity:1" fill="#484a53" d="M 1337.5,39.5 C 1339.2,39.3398 1340.87,39.5065 1342.5,40C 1341.58,40.3742 1340.75,40.8742 1340,41.5C 1339.8,43.2556 1339.3,44.9223 1338.5,46.5C 1337.53,44.2573 1337.19,41.924 1337.5,39.5 Z"/></g>
<g><path style="opacity:1" fill="#0e111d" d="M 1345.5,40.5 C 1344.82,42.4144 1344.32,44.4144 1344,46.5C 1343.33,44.1667 1343.33,41.8333 1344,39.5C 1344.38,40.056 1344.88,40.3893 1345.5,40.5 Z"/></g>
<g><path style="opacity:1" fill="#494a53" d="M 1277.5,36.5 C 1280.76,36.174 1282.26,37.5073 1282,40.5C 1280.6,38.4732 1278.94,38.1398 1277,39.5C 1275.42,44.3618 1276.92,46.0285 1281.5,44.5C 1277.89,42.2876 1278.56,41.2876 1283.5,41.5C 1283.63,46.7083 1281.3,48.3749 1276.5,46.5C 1273.7,42.8516 1274.03,39.5182 1277.5,36.5 Z"/></g>
<g><path style="opacity:1" fill="#161925" d="M 1306.5,40.5 C 1303.09,40.3838 1301.76,42.0504 1302.5,45.5C 1301.39,44.0536 1301.22,42.3869 1302,40.5C 1303.62,39.1991 1305.12,39.1991 1306.5,40.5 Z"/></g>
<g><path style="opacity:1" fill="#e7e4dc" d="M 1306.5,40.5 C 1306.5,42.1667 1306.5,43.8333 1306.5,45.5C 1305.17,45.5 1303.83,45.5 1302.5,45.5C 1301.76,42.0504 1303.09,40.3838 1306.5,40.5 Z"/></g>
<g><path style="opacity:1" fill="#111520" d="M 1345.5,40.5 C 1346.54,39.2089 1347.71,39.2089 1349,40.5C 1349.67,42.5 1349.67,44.5 1349,46.5C 1348.67,44.8333 1348.33,43.1667 1348,41.5C 1347.33,40.7476 1346.5,40.4142 1345.5,40.5 Z"/></g>
<g><path style="opacity:1" fill="#3d3f49" d="M 1286.5,39.5 C 1291.38,39.5349 1292.71,41.8682 1290.5,46.5C 1287.21,48.1773 1285.21,47.1773 1284.5,43.5C 1284.75,41.9271 1285.42,40.5938 1286.5,39.5 Z"/></g>
<g><path style="opacity:1" fill="#edeae1" d="M 1287.5,40.5 C 1290.08,41.0483 1291.08,42.715 1290.5,45.5C 1289.17,45.5 1287.83,45.5 1286.5,45.5C 1286.37,43.7085 1286.7,42.0418 1287.5,40.5 Z"/></g>
<g><path style="opacity:1" fill="#454750" d="M 1306.5,40.5 C 1309.36,43.3974 1308.86,45.7308 1305,47.5C 1303.7,47.3613 1302.87,46.6946 1302.5,45.5C 1303.83,45.5 1305.17,45.5 1306.5,45.5C 1306.5,43.8333 1306.5,42.1667 1306.5,40.5 Z"/></g>
<g><path style="opacity:1" fill="#3d3f49" d="M 1322.5,39.5 C 1327.07,39.0826 1328.57,41.0826 1327,45.5C 1323.83,48.3883 1321.66,47.7216 1320.5,43.5C 1320.75,41.9271 1321.42,40.5938 1322.5,39.5 Z"/></g>
<g><path style="opacity:1" fill="#f1ede4" d="M 1323.5,40.5 C 1326.39,40.999 1327.06,42.499 1325.5,45C 1324.55,45.4828 1323.55,45.6495 1322.5,45.5C 1322.37,43.7085 1322.7,42.0418 1323.5,40.5 Z"/></g>
<g><path style="opacity:1" fill="#3b3c47" d="M 1352.5,39.5 C 1354.14,39.2865 1355.64,39.6198 1357,40.5C 1357.5,42.4727 1357.66,44.4727 1357.5,46.5C 1355.54,47.1383 1353.71,47.1383 1352,46.5C 1351.31,43.6706 1352.48,42.0039 1355.5,41.5C 1354.28,40.9041 1352.95,40.7374 1351.5,41C 1352.06,40.6174 1352.39,40.1174 1352.5,39.5 Z"/></g>
<g><path style="opacity:1" fill="#fc8c8b" d="M 1203.5,42.5 C 1208.87,42.1718 1214.21,42.5052 1219.5,43.5C 1216.83,43.8333 1214.17,44.1667 1211.5,44.5C 1208.41,44.4783 1205.74,43.8117 1203.5,42.5 Z"/></g>
<g><path style="opacity:1" fill="#f6f3e9" d="M 1353.5,43.5 C 1354.38,43.3691 1355.04,43.7025 1355.5,44.5C 1353.19,45.8734 1352.52,45.5401 1353.5,43.5 Z"/></g>
<g><path style="opacity:1" fill="#3d3f49" d="M 1314.5,38.5 C 1315.57,37.5655 1316.9,37.2322 1318.5,37.5C 1318.5,40.1667 1318.5,42.8333 1318.5,45.5C 1316.48,48.1336 1314.48,47.967 1312.5,45C 1314.11,45.0187 1315.77,45.1854 1317.5,45.5C 1317.5,43.1667 1317.5,40.8333 1317.5,38.5C 1316.5,38.5 1315.5,38.5 1314.5,38.5 Z"/></g>
<g><path style="opacity:1" fill="#363842" d="M 1329.5,39.5 C 1330.46,41.2646 1330.79,43.2646 1330.5,45.5C 1331.82,45.67 1332.99,45.3366 1334,44.5C 1334.33,42.8333 1334.67,41.1667 1335,39.5C 1335.81,41.9018 1335.65,44.2351 1334.5,46.5C 1332.96,47.7468 1331.46,47.7468 1330,46.5C 1329.5,44.1902 1329.34,41.8568 1329.5,39.5 Z"/></g>
<g><path style="opacity:0.999" fill="#ef4444" d="M 65.5,14.5 C 130.168,14.3333 194.834,14.5 259.5,15C 260.333,15.8333 261.167,16.6667 262,17.5C 262.667,33.8333 262.667,50.1667 262,66.5C 261.167,67.3333 260.333,68.1667 259.5,69C 194.833,69.6667 130.167,69.6667 65.5,69C 64.6667,68.1667 63.8333,67.3333 63,66.5C 62.3333,50.1667 62.3333,33.8333 63,17.5C 64.045,16.6266 64.8783,15.6266 65.5,14.5 Z"/></g>
<g><path style="opacity:1" fill="#fffdfd" d="M 66.5,15.5 C 130.168,15.3333 193.834,15.5 257.5,16C 258.931,16.4652 260.097,17.2986 261,18.5C 261.667,33.8333 261.667,49.1667 261,64.5C 260.5,66.3333 259.333,67.5 257.5,68C 194.167,68.6667 130.833,68.6667 67.5,68C 65.6667,67.5 64.5,66.3333 64,64.5C 63.3333,49.5 63.3333,34.5 64,19.5C 64.6622,18.0161 65.4955,16.6828 66.5,15.5 Z"/></g>
<g><path style="opacity:1" fill="#ff6255" d="M 226.5,50.5 C 226.577,51.7498 227.244,52.5831 228.5,53C 227.552,53.4828 226.552,53.6495 225.5,53.5C 225.263,52.209 225.596,51.209 226.5,50.5 Z"/></g>
<g><path style="opacity:1" fill="#ff7a6d" d="M 206.5,46.5 C 209.95,45.7564 211.616,47.0897 211.5,50.5C 210.022,50.238 208.689,50.5713 207.5,51.5C 208.391,52.5896 209.391,52.5896 210.5,51.5C 211.696,51.8457 211.696,52.3457 210.5,53C 205.57,53.427 204.237,51.2604 206.5,46.5 Z"/></g>
<g><path style="opacity:1" fill="#ff766a" d="M 154.5,46.5 C 156.036,48.0251 157.036,50.0251 157.5,52.5C 159.131,50.9412 159.964,48.9412 160,46.5C 160.497,48.8098 160.663,51.1432 160.5,53.5C 155.094,54.2647 153.094,51.9313 154.5,46.5 Z"/></g>
<g><path style="opacity:1" fill="#ff8478" d="M 226.5,50.5 C 230.158,48.6299 229.825,47.7965 225.5,48C 225.833,47.6667 226.167,47.3333 226.5,47C 228.657,46.9219 230.657,46.7552 232.5,46.5C 233.971,47.3805 234.804,48.7139 235,50.5C 235.5,49.5 236,48.5 236.5,47.5C 237.002,46.479 237.668,46.3123 238.5,47C 237.286,49.3506 236.452,51.8506 236,54.5C 235.035,56.2603 233.868,56.5937 232.5,55.5C 234.524,53.261 234.358,50.9277 232,48.5C 231.798,50.2556 231.298,51.9223 230.5,53.5C 229.614,52.675 229.281,51.675 229.5,50.5C 228.5,50.5 227.5,50.5 226.5,50.5 Z"/></g>
<g><path style="opacity:1" fill="#ff786c" d="M 143.5,52.5 C 140.971,53.9052 139.304,53.0718 138.5,50C 139.969,46.1736 142.136,45.6736 145,48.5C 145.773,50.3524 145.273,51.6857 143.5,52.5 Z"/></g>
<g><path style="opacity:1" fill="#ff7366" d="M 163.5,46.5 C 168.833,47.1667 168.833,47.8333 163.5,48.5C 163.351,49.552 163.517,50.552 164,51.5C 165.303,52.1122 166.47,52.4455 167.5,52.5C 165.994,53.7472 164.494,53.7472 163,52.5C 162.322,50.4024 162.489,48.4024 163.5,46.5 Z"/></g>
<g><path style="opacity:1" fill="#ff776a" d="M 151.5,44.5 C 152.477,47.2869 152.81,50.2869 152.5,53.5C 146.842,54.3206 145.175,52.154 147.5,47C 148.784,46.3162 149.951,46.4829 151,47.5C 151.483,46.552 151.649,45.552 151.5,44.5 Z"/></g>
<g><path style="opacity:1" fill="#ffecea" d="M 148.5,48.5 C 149.5,48.5 150.5,48.5 151.5,48.5C 151.778,50.3464 151.111,51.6798 149.5,52.5C 148.571,51.3112 148.238,49.9778 148.5,48.5 Z"/></g>
<g><path style="opacity:1" fill="#ffefee" d="M 143.5,52.5 C 142.5,52.5 141.5,52.5 140.5,52.5C 140.5,51.1667 140.5,49.8333 140.5,48.5C 141.5,48.5 142.5,48.5 143.5,48.5C 143.5,49.8333 143.5,51.1667 143.5,52.5 Z"/></g>
<g><path style="opacity:1" fill="#ff695c" d="M 200.5,47.5 C 201.209,46.596 202.209,46.2627 203.5,46.5C 203.663,48.8568 203.497,51.1902 203,53.5C 202.963,51.0261 202.13,49.0261 200.5,47.5 Z"/></g>
<g><path style="opacity:1" fill="#ff7f73" d="M 134.5,46.5 C 135.873,46.3433 137.207,46.51 138.5,47C 137.072,48.9162 136.072,51.0829 135.5,53.5C 134.526,51.2573 134.192,48.924 134.5,46.5 Z"/></g>
<g><path style="opacity:1" fill="#ff7265" d="M 178.5,46.5 C 183.328,46.3852 184.661,48.5519 182.5,53C 177.57,53.427 176.237,51.2604 178.5,46.5 Z"/></g>
<g><path style="opacity:1" fill="#ffddda" d="M 179.5,47.5 C 182.956,48.5362 183.29,50.2029 180.5,52.5C 178.296,51.218 177.962,49.5514 179.5,47.5 Z"/></g>
<g><path style="opacity:1" fill="#ff877b" d="M 108.5,44.5 C 109.741,46.9312 110.908,46.9312 112,44.5C 113.559,47.711 113.059,50.711 110.5,53.5C 109.808,52.9747 109.308,52.3081 109,51.5C 108.002,54.0278 107.169,54.0278 106.5,51.5C 107.39,50.0445 107.39,48.7112 106.5,47.5C 107.612,46.7348 108.279,45.7348 108.5,44.5 Z"/></g>
<g><path style="opacity:1" fill="#ff7265" d="M 193.5,45.5 C 194.473,45.9867 195.473,46.4867 196.5,47C 195.68,49.3332 195.347,51.4999 195.5,53.5C 193.95,51.6672 192.95,49.5006 192.5,47C 193.056,46.6174 193.389,46.1174 193.5,45.5 Z"/></g>
<g><path style="opacity:1" fill="#ff776a" d="M 185.5,44.5 C 186.552,44.3505 187.552,44.5172 188.5,45C 188.324,47.6716 187.657,50.5049 186.5,53.5C 185.144,50.4292 184.811,47.4292 185.5,44.5 Z"/></g>
<g><path style="opacity:1" fill="#ff6b5e" d="M 169.5,45.5 C 170.756,45.4614 171.756,45.9614 172.5,47C 171.68,49.3332 171.347,51.4999 171.5,53.5C 170.451,50.9205 169.784,48.2538 169.5,45.5 Z"/></g>
<g><path style="opacity:1" fill="#ff7669" d="M 126.5,44.5 C 128.5,44.5 130.5,44.5 132.5,44.5C 133.401,48.2407 132.068,50.2407 128.5,50.5C 128.719,51.675 128.386,52.675 127.5,53.5C 126.516,50.5719 126.183,47.5719 126.5,44.5 Z"/></g>
<g><path style="opacity:1" fill="#ffebe9" d="M 128.5,45.5 C 132.31,46.7542 132.31,47.7542 128.5,48.5C 128.5,47.5 128.5,46.5 128.5,45.5 Z"/></g>
<g><path style="opacity:1" fill="#ff675a" d="M 221.5,45.5 C 225.091,50.9447 223.425,53.6114 216.5,53.5C 216.5,50.5 216.5,47.5 216.5,44.5C 218.415,44.2155 220.081,44.5489 221.5,45.5 Z"/></g>
<g><path style="opacity:1" fill="#fff7f6" d="M 221.5,46.5 C 223.023,48.5857 222.69,50.2524 220.5,51.5C 218.744,50.4479 218.077,48.7812 218.5,46.5C 219.5,46.5 220.5,46.5 221.5,46.5 Z"/></g>
<g><path style="opacity:1" fill="#ffb0a9" d="M 221.5,45.5 C 221.5,45.8333 221.5,46.1667 221.5,46.5C 220.5,46.5 219.5,46.5 218.5,46.5C 218.077,48.7812 218.744,50.4479 220.5,51.5C 219.791,52.404 218.791,52.7373 217.5,52.5C 217.5,50.1667 217.5,47.8333 217.5,45.5C 218.833,45.5 220.167,45.5 221.5,45.5 Z"/></g>
<g><path style="opacity:1" fill="#ff776a" d="M 200.5,47.5 C 199.961,49.5049 199.295,51.5049 198.5,53.5C 197.167,50.5 197.167,47.5 198.5,44.5C 199.176,45.6016 199.842,46.6016 200.5,47.5 Z"/></g>
<g><path style="opacity:1" fill="#ff7063" d="M 116.5,48.5 C 116.712,46.6159 117.712,45.2826 119.5,44.5C 120.221,46.686 120.887,48.8526 121.5,51C 120.953,51.9246 120.287,52.7579 119.5,53.5C 117.999,52.2485 116.332,51.2485 114.5,50.5C 114.855,49.4777 115.522,48.811 116.5,48.5 Z"/></g>
<g><path style="opacity:1" fill="#ffd8d4" d="M 116.5,48.5 C 118.54,47.5249 118.873,48.1916 117.5,50.5C 116.702,50.0431 116.369,49.3764 116.5,48.5 Z"/></g>
<g><path style="opacity:1" fill="#cd7628" d="M 83.5,31.5 C 93.3273,32.0043 95.994,36.671 91.5,45.5C 92.1667,46.8333 92.8333,48.1667 93.5,49.5C 92.2643,50.3567 90.931,51.0234 89.5,51.5C 88.561,49.9466 87.3943,48.6133 86,47.5C 84.6057,48.6133 83.439,49.9466 82.5,51.5C 81.069,51.0234 79.7357,50.3567 78.5,49.5C 79.1667,48.1667 79.8333,46.8333 80.5,45.5C 77.2248,39.7918 78.2248,35.1251 83.5,31.5 Z"/></g>
<g><path style="opacity:1" fill="#fadb98" d="M 85.5,35.5 C 87.024,37.4079 88.3574,39.5746 89.5,42C 87.408,43.1127 85.0747,43.2793 82.5,42.5C 82.6878,39.7939 83.6878,37.4605 85.5,35.5 Z"/></g>
<g><path style="opacity:1" fill="#ff8a80" d="M 167.5,30.5 C 168.995,30.4148 169.995,31.0815 170.5,32.5C 169.253,34.0421 169.253,35.5421 170.5,37C 169.552,37.4828 168.552,37.6495 167.5,37.5C 167.5,35.1667 167.5,32.8333 167.5,30.5 Z"/></g>
<g><path style="opacity:1" fill="#ff8073" d="M 126.5,30.5 C 127.468,32.6074 127.802,34.9407 127.5,37.5C 123.5,38.1667 121.833,36.5 122.5,32.5C 124.483,32.8432 125.817,32.1765 126.5,30.5 Z"/></g>
<g><path style="opacity:1" fill="#fff1f0" d="M 124.5,33.5 C 126.973,33.9473 127.14,34.9473 125,36.5C 124.517,35.552 124.351,34.552 124.5,33.5 Z"/></g>
<g><path style="opacity:1" fill="#ffa8a0" d="M 110.5,34.5 C 109.5,35.5 108.5,36.5 107.5,37.5C 107.5,35.5 107.5,33.5 107.5,31.5C 108.675,31.281 109.675,31.6143 110.5,32.5C 109.45,33.4288 109.45,34.0954 110.5,34.5 Z"/></g>
<g><path style="opacity:1" fill="#ff776b" d="M 165.5,32.5 C 166.788,34.0348 166.788,35.7015 165.5,37.5C 164.833,36.1667 164.167,34.8333 163.5,33.5C 162.828,34.9492 162.161,36.2825 161.5,37.5C 161.5,35.8333 161.5,34.1667 161.5,32.5C 162.833,32.5 164.167,32.5 165.5,32.5 Z"/></g>
<g><path style="opacity:1" fill="#ffb7b0" d="M 165.5,32.5 C 164.167,32.5 162.833,32.5 161.5,32.5C 161.5,34.1667 161.5,35.8333 161.5,37.5C 160.5,37.5 159.5,37.5 158.5,37.5C 158.5,35.5 158.5,33.5 158.5,31.5C 161.059,31.1984 163.393,31.5318 165.5,32.5 Z"/></g>
<g><path style="opacity:1" fill="#ff6356" d="M 155.5,32.5 C 156.234,33.8775 156.901,35.3775 157.5,37C 157.167,37.1667 156.833,37.3333 156.5,37.5C 155.548,35.9547 155.215,34.288 155.5,32.5 Z"/></g>
<g><path style="opacity:1" fill="#ff857a" d="M 141.5,30.5 C 142.693,30.9704 143.36,31.9704 143.5,33.5C 144.038,35.111 144.038,36.4443 143.5,37.5C 142.914,37.2907 142.414,36.9574 142,36.5C 141.505,34.5273 141.338,32.5273 141.5,30.5 Z"/></g>
<g><path style="opacity:1" fill="#ff8e83" d="M 132.5,31.5 C 133.75,31.5774 134.583,32.244 135,33.5C 136.388,32.4464 137.888,32.2797 139.5,33C 138.552,33.4828 137.552,33.6495 136.5,33.5C 136.281,34.675 136.614,35.675 137.5,36.5C 141.445,35.5728 141.445,35.9061 137.5,37.5C 136.353,37.1822 135.519,36.5156 135,35.5C 133.599,37.1922 131.766,37.8588 129.5,37.5C 129.347,31.6761 130.013,31.3428 131.5,36.5C 132.452,34.9547 132.785,33.288 132.5,31.5 Z"/></g>
<g><path style="opacity:1" fill="#ff9d92" d="M 111.5,31.5 C 114.28,31.9452 116.947,31.9452 119.5,31.5C 120.881,31.9996 121.547,32.9996 121.5,34.5C 121.566,36.2664 120.732,37.2664 119,37.5C 117.235,36.7679 116.068,35.4346 115.5,33.5C 114.833,34.8333 114.167,36.1667 113.5,37.5C 112.828,36.0508 112.161,34.7175 111.5,33.5C 111.5,32.8333 111.5,32.1667 111.5,31.5 Z"/></g>
<g><path style="opacity:1" fill="#fe6153" d="M 147.5,30.5 C 148.404,31.209 148.737,32.209 148.5,33.5C 149.833,33.5 151.167,33.5 152.5,33.5C 153.833,33.8333 153.833,34.1667 152.5,34.5C 151.167,34.5 149.833,34.5 148.5,34.5C 148.649,35.552 148.483,36.552 148,37.5C 147.503,35.1902 147.337,32.8568 147.5,30.5 Z"/></g>
<g><path style="opacity:1" fill="#ff6659" d="M 111.5,31.5 C 111.5,32.1667 111.5,32.8333 111.5,33.5C 111.5,34.1667 111.167,34.5 110.5,34.5C 109.45,34.0954 109.45,33.4288 110.5,32.5C 109.675,31.6143 108.675,31.281 107.5,31.5C 107.5,33.5 107.5,35.5 107.5,37.5C 106.532,35.3926 106.198,33.0593 106.5,30.5C 108.415,30.2155 110.081,30.5489 111.5,31.5 Z"/></g>
</svg>
