<?xml version="1.0" encoding="UTF-8"?>
<!DOCTYPE svg PUBLIC "-//W3C//DTD SVG 1.1//EN" "http://www.w3.org/Graphics/SVG/1.1/DTD/svg11.dtd">
<svg xmlns="http://www.w3.org/2000/svg" version="1.1" width="866px" height="350px" style="shape-rendering:geometricPrecision; text-rendering:geometricPrecision; image-rendering:optimizeQuality; fill-rule:evenodd; clip-rule:evenodd" xmlns:xlink="http://www.w3.org/1999/xlink">
<g><path style="opacity:0.894" fill="#324054" d="M 253.5,6.5 C 257.167,6.5 260.833,6.5 264.5,6.5C 264.5,25.5 264.5,44.5 264.5,63.5C 260.833,63.5 257.167,63.5 253.5,63.5C 253.5,44.5 253.5,25.5 253.5,6.5 Z"/></g>
<g><path style="opacity:0.956" fill="#324054" d="M 776.5,6.5 C 780.167,6.5 783.833,6.5 787.5,6.5C 787.5,25.5 787.5,44.5 787.5,63.5C 784.167,63.5 780.833,63.5 777.5,63.5C 777.665,59.8183 777.499,56.1516 777,52.5C 774.148,63.1804 767.315,67.0137 756.5,64C 747.977,59.4573 744.311,52.2906 745.5,42.5C 745.338,23.8019 754.005,17.3019 771.5,23C 774.463,25.8747 776.296,29.3747 777,33.5C 776.654,24.5367 776.487,15.5367 776.5,6.5 Z M 763.5,29.5 C 770.594,29.7571 774.761,33.4238 776,40.5C 776.676,46.6454 774.509,51.4787 769.5,55C 762.756,56.7138 758.59,54.2138 757,47.5C 755.224,39.8688 757.39,33.8688 763.5,29.5 Z"/></g>
<g><path style="opacity:0.958" fill="#324054" d="M 70.5,10.5 C 81.231,10.0973 91.8977,10.5973 102.5,12C 113.294,16.4305 116.128,23.9305 111,34.5C 107.888,37.8057 104.055,39.639 99.5,40C 104.036,40.5437 107.536,42.7104 110,46.5C 111.842,52.0274 113.676,57.5274 115.5,63C 111.5,63.6667 107.5,63.6667 103.5,63C 102.263,57.3887 100.263,52.0553 97.5,47C 92.2919,45.6033 86.9586,45.1033 81.5,45.5C 81.5,51.5 81.5,57.5 81.5,63.5C 77.8333,63.5 74.1667,63.5 70.5,63.5C 70.5,45.8333 70.5,28.1667 70.5,10.5 Z M 81.5,19.5 C 86.5111,19.3341 91.5111,19.5007 96.5,20C 101.764,22.7905 103.264,26.9571 101,32.5C 100.097,33.7014 98.9308,34.5348 97.5,35C 92.2636,36.339 86.9302,36.839 81.5,36.5C 81.5,30.8333 81.5,25.1667 81.5,19.5 Z"/></g>
<g><path style="opacity:0.903" fill="#324054" d="M 320.5,11.5 C 322.792,11.2436 324.959,11.5769 327,12.5C 327.498,15.4816 327.665,18.4816 327.5,21.5C 331.167,21.5 334.833,21.5 338.5,21.5C 338.5,24.5 338.5,27.5 338.5,30.5C 334.833,30.5 331.167,30.5 327.5,30.5C 327.334,37.8409 327.5,45.1742 328,52.5C 330.896,54.745 334.063,55.0784 337.5,53.5C 338.833,56.8333 338.833,60.1667 337.5,63.5C 332.889,64.6103 328.222,64.7769 323.5,64C 321,62.8333 319.167,61 318,58.5C 316.614,49.2338 316.114,39.9005 316.5,30.5C 314.5,30.5 312.5,30.5 310.5,30.5C 310.5,27.5 310.5,24.5 310.5,21.5C 318.086,22.5812 321.419,19.2479 320.5,11.5 Z"/></g>
<g><path style="opacity:0.944" fill="#324054" d="M 131.5,20.5 C 149.495,18.4969 158.161,26.4969 157.5,44.5C 147.801,44.2747 138.134,44.608 128.5,45.5C 129.59,54.3901 134.59,57.8901 143.5,56C 145.779,53.9385 147.946,51.7719 150,49.5C 152.918,50.0827 155.751,50.916 158.5,52C 153.261,63.7769 144.261,67.7769 131.5,64C 123.886,61.6379 119.386,56.4712 118,48.5C 115.871,35.7624 120.371,26.4291 131.5,20.5 Z M 134.5,29.5 C 142.229,27.8497 146.562,30.8497 147.5,38.5C 141.132,38.8297 134.798,38.4963 128.5,37.5C 129.561,34.0087 131.561,31.342 134.5,29.5 Z"/></g>
<g><path style="opacity:0.939" fill="#324054" d="M 282.5,20.5 C 287.511,20.3341 292.511,20.5007 297.5,21C 302.667,22.1667 305.833,25.3333 307,30.5C 307.5,41.5038 308,52.5038 308.5,63.5C 305.167,63.5 301.833,63.5 298.5,63.5C 298.665,60.4816 298.498,57.4816 298,54.5C 292.316,64.6069 284.149,67.2736 273.5,62.5C 268.572,56.6284 268.239,50.4617 272.5,44C 279.859,40.6614 287.526,38.328 295.5,37C 297.451,31.9225 295.618,29.0892 290,28.5C 284.896,29.2803 281.23,31.9469 279,36.5C 276.276,35.3132 273.443,34.6465 270.5,34.5C 271.997,27.6711 275.997,23.0044 282.5,20.5 Z M 295.5,43.5 C 296.649,43.7911 297.316,44.6244 297.5,46C 295.881,51.9538 292.047,55.4538 286,56.5C 280.91,56.1515 279.243,53.4848 281,48.5C 281.5,48 282,47.5 282.5,47C 286.919,45.6476 291.252,44.481 295.5,43.5 Z"/></g>
<g><path style="opacity:0.941" fill="#324054" d="M 354.5,20.5 C 372.454,18.4544 381.121,26.4544 380.5,44.5C 370.801,44.2747 361.134,44.608 351.5,45.5C 351.962,54.4516 356.629,57.9516 365.5,56C 368.358,54.1351 370.858,51.9685 373,49.5C 375.966,49.8519 378.466,51.0186 380.5,53C 378.846,58.6535 375.18,62.3202 369.5,64C 347.833,67.3321 338.333,58.1654 341,36.5C 342.859,28.8174 347.359,23.4841 354.5,20.5 Z M 357.5,29.5 C 364.386,28.0577 368.72,30.7243 370.5,37.5C 364.167,38.8333 357.833,38.8333 351.5,37.5C 352.406,33.9383 354.406,31.2716 357.5,29.5 Z"/></g>
<g><path style="opacity:0.946" fill="#324054" d="M 458.5,20.5 C 481.99,19.4199 490.824,30.4199 485,53.5C 482.768,58.7306 478.935,62.2306 473.5,64C 449.313,66.1916 440.147,55.3583 446,31.5C 448.708,26.0793 452.875,22.4127 458.5,20.5 Z M 461.5,29.5 C 468.079,28.038 472.579,30.3713 475,36.5C 476.11,42.4257 475.444,48.0923 473,53.5C 465.382,58.6162 459.715,56.9496 456,48.5C 455.174,43.4107 455.508,38.4107 457,33.5C 458.397,31.9297 459.897,30.5964 461.5,29.5 Z"/></g>
<g><path style="opacity:0.951" fill="#324054" d="M 556.5,20.5 C 559.5,20.5 562.5,20.5 565.5,20.5C 565.824,24.5546 565.491,28.5546 564.5,32.5C 558.475,30.1415 553.975,31.8082 551,37.5C 549.59,46.0836 549.09,54.7502 549.5,63.5C 545.833,63.5 542.167,63.5 538.5,63.5C 538.5,49.5 538.5,35.5 538.5,21.5C 541.5,21.5 544.5,21.5 547.5,21.5C 547.334,25.8461 547.501,30.1794 548,34.5C 548.572,28.3396 551.405,23.6729 556.5,20.5 Z"/></g>
<g><path style="opacity:0.942" fill="#324054" d="M 603.5,20.5 C 613.74,18.9073 619.573,23.2406 621,33.5C 623.973,21.9291 631.14,18.0957 642.5,22C 646.574,25.5426 648.741,30.0426 649,35.5C 649.5,44.8274 649.666,54.1607 649.5,63.5C 645.833,63.5 642.167,63.5 638.5,63.5C 638.666,55.16 638.5,46.8267 638,38.5C 636.729,30.1951 632.729,28.1951 626,32.5C 624.725,34.7173 623.725,37.0506 623,39.5C 622.5,47.4931 622.334,55.4931 622.5,63.5C 618.833,63.5 615.167,63.5 611.5,63.5C 611.666,54.4938 611.5,45.4938 611,36.5C 609.642,30.0695 606.142,28.4029 600.5,31.5C 598.703,33.1311 597.536,35.1311 597,37.5C 595.624,46.0979 595.124,54.7646 595.5,63.5C 591.833,63.5 588.167,63.5 584.5,63.5C 584.5,49.5 584.5,35.5 584.5,21.5C 587.5,21.5 590.5,21.5 593.5,21.5C 593.334,25.8461 593.501,30.1794 594,34.5C 595.049,28.3031 598.215,23.6365 603.5,20.5 Z"/></g>
<g><path style="opacity:0.947" fill="#324054" d="M 668.5,20.5 C 689.466,18.9657 698.632,28.6324 696,49.5C 691.127,62.8224 681.627,67.6557 667.5,64C 658.2,59.9104 653.533,52.7437 653.5,42.5C 653.594,31.5988 658.594,24.2655 668.5,20.5 Z M 670.5,29.5 C 678.28,27.7834 683.113,30.7834 685,38.5C 685.791,42.9255 685.457,47.2589 684,51.5C 679.652,57.0302 674.485,57.8635 668.5,54C 662.793,45.1399 663.46,36.9732 670.5,29.5 Z"/></g>
<g><path style="opacity:0.944" fill="#324054" d="M 713.5,20.5 C 736.24,18.7417 745.407,29.075 741,51.5C 737.457,60.6065 730.791,64.9398 721,64.5C 706.643,64.3084 699.476,56.9751 699.5,42.5C 699.156,31.8321 703.822,24.4987 713.5,20.5 Z M 716.5,29.5 C 726.576,28.5728 731.576,33.2395 731.5,43.5C 730.93,54.2587 725.597,58.0921 715.5,55C 710.854,49.6892 709.354,43.5225 711,36.5C 711.967,33.3794 713.8,31.046 716.5,29.5 Z"/></g>
<g><path style="opacity:0.933" fill="#324054" d="M 177.5,20.5 C 185.833,20.5 194.167,20.5 202.5,20.5C 202.5,23.5 202.5,26.5 202.5,29.5C 198.837,28.8875 195.17,28.7208 191.5,29C 198.632,31.0489 200.799,35.5489 198,42.5C 195.9,45.4668 193.066,47.3002 189.5,48C 184.5,48.3333 179.5,48.6667 174.5,49C 173.5,50 172.5,51 171.5,52C 179.062,53.2669 186.729,53.9336 194.5,54C 203.582,57.5727 205.748,63.7394 201,72.5C 197.086,75.6954 192.586,77.5287 187.5,78C 179.681,78.9678 172.014,78.3012 164.5,76C 158.741,72.1081 158.074,67.4414 162.5,62C 165.363,60.6011 168.363,59.6011 171.5,59C 168.768,58.587 166.101,57.9203 163.5,57C 162.424,55.2739 162.257,53.4406 163,51.5C 165.295,48.9352 168.128,47.2686 171.5,46.5C 163.291,44.7179 160.125,39.7179 162,31.5C 165.056,24.7327 170.222,21.0661 177.5,20.5 Z M 177.5,28.5 C 187.556,27.8042 190.556,31.9709 186.5,41C 181.354,43.5039 176.854,42.6706 173,38.5C 171.571,33.7833 173.071,30.45 177.5,28.5 Z M 176.5,59.5 C 181.599,59.1746 186.599,59.6746 191.5,61C 193.325,62.4659 193.825,64.2992 193,66.5C 186.077,69.8254 178.911,70.3254 171.5,68C 170.424,66.2739 170.257,64.4406 171,62.5C 172.876,61.3913 174.709,60.3913 176.5,59.5 Z"/></g>
<g><path style="opacity:0.974" fill="#324054" d="M 206.5,21.5 C 210.5,21.5 214.5,21.5 218.5,21.5C 218.334,31.1724 218.5,40.8391 219,50.5C 220.664,55.0383 223.831,56.5383 228.5,55C 231.106,53.0616 232.939,50.5616 234,47.5C 235.297,38.8856 235.797,30.2189 235.5,21.5C 239.167,21.5 242.833,21.5 246.5,21.5C 246.5,35.5 246.5,49.5 246.5,63.5C 243.167,63.5 239.833,63.5 236.5,63.5C 236.665,59.8183 236.499,56.1516 236,52.5C 233.11,63.1978 226.277,67.0312 215.5,64C 209.034,59.6374 206.2,53.4707 207,45.5C 206.5,37.5069 206.334,29.5069 206.5,21.5 Z"/></g>
<g><path style="opacity:0.934" fill="#324054" d="M 401.5,21.5 C 405.167,21.5 408.833,21.5 412.5,21.5C 412.334,28.8409 412.5,36.1742 413,43.5C 413.99,50.0016 417.49,52.0016 423.5,49.5C 425.297,47.8689 426.464,45.8689 427,43.5C 428.3,36.229 428.8,28.8956 428.5,21.5C 432.167,21.5 435.833,21.5 439.5,21.5C 439.667,33.5046 439.5,45.5046 439,57.5C 437.969,70.5307 430.969,77.5307 418,78.5C 412.941,78.222 408.108,77.0553 403.5,75C 399.929,71.0831 400.262,67.2498 404.5,63.5C 410.942,68.8724 417.942,69.7057 425.5,66C 429.93,59.5225 431.43,52.3559 430,44.5C 428.151,58.7113 420.651,63.2113 407.5,58C 404.333,54.845 402.499,51.0117 402,46.5C 401.5,38.1733 401.334,29.84 401.5,21.5 Z"/></g>
<g><path style="opacity:0.927" fill="#324054" d="M 491.5,21.5 C 495.167,21.5 498.833,21.5 502.5,21.5C 502.334,30.5062 502.5,39.5062 503,48.5C 505.294,56.1659 509.627,57.4992 516,52.5C 517.275,50.2827 518.275,47.9494 519,45.5C 519.5,37.5069 519.666,29.5069 519.5,21.5C 523.167,21.5 526.833,21.5 530.5,21.5C 530.5,35.5 530.5,49.5 530.5,63.5C 527.5,63.5 524.5,63.5 521.5,63.5C 521.666,59.1539 521.499,54.8206 521,50.5C 519.203,62.6283 512.37,67.1283 500.5,64C 495.321,61.4781 492.487,57.3114 492,51.5C 491.5,41.5056 491.334,31.5056 491.5,21.5 Z"/></g>
<g><path style="opacity:0.922" fill="#324054" d="M 791.5,54.5 C 795.167,54.5 798.833,54.5 802.5,54.5C 802.276,61.0733 800.942,67.4066 798.5,73.5C 795.572,74.4841 792.572,74.8174 789.5,74.5C 791.133,67.9492 791.799,61.2825 791.5,54.5 Z"/></g>
<g><path style="opacity:0.915" fill="#13b7a5" d="M 682.5,80.5 C 685.93,80.1065 689.096,80.7732 692,82.5C 693.706,88.1057 691.706,91.1057 686,91.5C 679.907,91.3869 677.907,88.3869 680,82.5C 680.995,81.9341 681.828,81.2674 682.5,80.5 Z"/></g>
<g><path style="opacity:0.971" fill="#324054" d="M 274.5,82.5 C 278.167,82.5 281.833,82.5 285.5,82.5C 285.5,101.5 285.5,120.5 285.5,139.5C 281.833,139.5 278.167,139.5 274.5,139.5C 274.5,120.5 274.5,101.5 274.5,82.5 Z"/></g>
<g><path style="opacity:0.963" fill="#83cb15" d="M 657.5,87.5 C 659.833,87.5 662.167,87.5 664.5,87.5C 664.5,90.8333 664.5,94.1667 664.5,97.5C 668.167,97.5 671.833,97.5 675.5,97.5C 675.5,100.5 675.5,103.5 675.5,106.5C 671.833,106.5 668.167,106.5 664.5,106.5C 664.334,113.841 664.5,121.174 665,128.5C 667.896,130.745 671.063,131.078 674.5,129.5C 675.791,133.045 675.791,136.545 674.5,140C 668.574,141.11 662.908,140.444 657.5,138C 656.54,136.581 655.707,135.081 655,133.5C 653.693,124.552 653.193,115.552 653.5,106.5C 651.5,106.5 649.5,106.5 647.5,106.5C 647.5,103.5 647.5,100.5 647.5,97.5C 655.331,98.7678 658.664,95.4344 657.5,87.5 Z"/></g>
<g><path style="opacity:0.932" fill="#324054" d="M 91.5,96.5 C 104.83,94.3295 111.663,99.9962 112,113.5C 112.5,122.16 112.666,130.827 112.5,139.5C 108.833,139.5 105.167,139.5 101.5,139.5C 101.859,129.776 101.359,120.109 100,110.5C 96.5345,104.721 92.2012,104.055 87,108.5C 85.7246,110.717 84.7246,113.051 84,115.5C 83.5003,123.493 83.3336,131.493 83.5,139.5C 79.8333,139.5 76.1667,139.5 72.5,139.5C 72.5,125.5 72.5,111.5 72.5,97.5C 75.5,97.5 78.5,97.5 81.5,97.5C 81.3343,101.846 81.501,106.179 82,110.5C 82.9782,104.171 86.1448,99.504 91.5,96.5 Z"/></g>
<g><path style="opacity:0.944" fill="#324055" d="M 137.5,96.5 C 140.5,96.5 143.5,96.5 146.5,96.5C 146.665,100.182 146.499,103.848 146,107.5C 138.92,105.877 133.92,108.543 131,115.5C 129.637,123.429 129.137,131.429 129.5,139.5C 125.833,139.5 122.167,139.5 118.5,139.5C 118.5,125.5 118.5,111.5 118.5,97.5C 121.833,97.5 125.167,97.5 128.5,97.5C 128.334,101.514 128.501,105.514 129,109.5C 129.883,103.695 132.716,99.362 137.5,96.5 Z"/></g>
<g><path style="opacity:0.942" fill="#324054" d="M 160.5,96.5 C 165.179,96.3342 169.845,96.5008 174.5,97C 181.521,99.1845 185.021,104.018 185,111.5C 185.181,120.744 185.681,129.911 186.5,139C 183.167,139.667 179.833,139.667 176.5,139C 175.712,135.924 175.212,132.758 175,129.5C 171.016,139.241 163.85,142.741 153.5,140C 147.673,136.867 145.507,132.034 147,125.5C 147.69,122.804 149.19,120.637 151.5,119C 158.088,116.282 164.921,114.449 172,113.5C 175.065,111.017 174.899,108.517 171.5,106C 167.779,104.497 164.112,104.831 160.5,107C 159.571,109.391 158.071,111.225 156,112.5C 152.971,111.715 150.138,110.549 147.5,109C 149.751,102.581 154.085,98.4139 160.5,96.5 Z M 172.5,119.5 C 173.693,119.97 174.36,120.97 174.5,122.5C 173.209,128.331 169.542,131.665 163.5,132.5C 157.432,131.323 156.098,128.156 159.5,123C 163.919,121.648 168.252,120.481 172.5,119.5 Z"/></g>
<g><path style="opacity:0.948" fill="#324054" d="M 243.5,96.5 C 261.465,94.4654 270.131,102.465 269.5,120.5C 259.801,120.275 250.134,120.608 240.5,121.5C 241.254,130.056 245.921,133.556 254.5,132C 257.544,130.356 260.044,128.189 262,125.5C 264.135,126.127 266.302,126.627 268.5,127C 269.749,129.21 269.582,131.376 268,133.5C 265.736,136.433 262.902,138.6 259.5,140C 237.346,143.842 227.513,134.676 230,112.5C 231.859,104.817 236.359,99.4841 243.5,96.5 Z M 246.5,105.5 C 254.229,103.85 258.562,106.85 259.5,114.5C 253.132,114.83 246.798,114.496 240.5,113.5C 241.561,110.009 243.561,107.342 246.5,105.5 Z"/></g>
<g><path style="opacity:0.941" fill="#324054" d="M 366.5,96.5 C 388.781,95.2836 397.615,105.617 393,127.5C 389.769,137.057 383.102,141.391 373,140.5C 358.987,139.986 351.82,132.653 351.5,118.5C 351.076,107.317 356.076,99.9841 366.5,96.5 Z M 368.5,105.5 C 374.694,103.993 379.194,105.993 382,111.5C 384.229,117.331 383.895,122.998 381,128.5C 377.178,132.721 372.678,133.554 367.5,131C 361.991,124.089 361.158,116.589 365,108.5C 366.145,107.364 367.312,106.364 368.5,105.5 Z"/></g>
<g><path style="opacity:0.946" fill="#324054" d="M 463.5,96.5 C 466.85,96.335 470.183,96.5017 473.5,97C 472.703,100.745 472.203,104.579 472,108.5C 463.698,105.822 458.698,108.822 457,117.5C 456.5,124.826 456.334,132.159 456.5,139.5C 452.833,139.5 449.167,139.5 445.5,139.5C 445.5,125.5 445.5,111.5 445.5,97.5C 448.5,97.5 451.5,97.5 454.5,97.5C 454.334,102.179 454.501,106.845 455,111.5C 455.807,105.206 458.64,100.206 463.5,96.5 Z"/></g>
<g><path style="opacity:0.933" fill="#ee4343" d="M 504.5,96.5 C 522.409,94.4066 531.075,102.407 530.5,120.5C 520.468,120.271 510.468,120.604 500.5,121.5C 501.794,130.294 506.794,133.794 515.5,132C 518.168,130.128 520.502,127.962 522.5,125.5C 525.435,125.896 528.102,126.896 530.5,128.5C 529.037,134.463 525.37,138.296 519.5,140C 496.726,142.894 487.226,133.06 491,110.5C 492.413,107.339 494.08,104.339 496,101.5C 498.682,99.415 501.516,97.7483 504.5,96.5 Z M 506.5,105.5 C 514.291,103.874 518.624,106.874 519.5,114.5C 513.158,114.666 506.825,114.5 500.5,114C 501.913,110.754 503.913,107.92 506.5,105.5 Z"/></g>
<g><path style="opacity:0.951" fill="#f87215" d="M 553.5,96.5 C 564.033,94.5354 569.867,98.8688 571,109.5C 574.79,96.8536 582.624,93.3536 594.5,99C 596.936,101.707 598.436,104.873 599,108.5C 599.5,118.828 599.666,129.161 599.5,139.5C 595.833,139.5 592.167,139.5 588.5,139.5C 588.666,130.161 588.5,120.827 588,111.5C 586.441,106.301 583.274,104.801 578.5,107C 576.383,108.731 574.883,110.898 574,113.5C 572.703,122.114 572.203,130.781 572.5,139.5C 569.167,139.5 565.833,139.5 562.5,139.5C 562.824,129.783 562.324,120.116 561,110.5C 557.57,104.195 553.57,103.861 549,109.5C 548.138,111.087 547.471,112.754 547,114.5C 546.5,122.827 546.334,131.16 546.5,139.5C 542.833,139.5 539.167,139.5 535.5,139.5C 535.5,125.5 535.5,111.5 535.5,97.5C 538.5,97.5 541.5,97.5 544.5,97.5C 544.334,101.514 544.501,105.514 545,109.5C 545.858,103.761 548.692,99.4273 553.5,96.5 Z"/></g>
<g><path style="opacity:0.954" fill="#e9b208" d="M 618.5,96.5 C 636.151,93.9694 645.818,101.469 647.5,119C 644.628,137.782 633.961,144.449 615.5,139C 607.279,134.732 603.613,127.898 604.5,118.5C 603.987,107.712 608.654,100.378 618.5,96.5 Z M 621.5,105.5 C 631.309,104.47 636.309,108.97 636.5,119C 636.159,130.033 630.826,134.033 620.5,131C 615.755,125.731 614.255,119.564 616,112.5C 616.938,109.402 618.772,107.069 621.5,105.5 Z"/></g>
<g><path style="opacity:0.941" fill="#eb4798" d="M 710.5,96.5 C 733.031,94.8703 742.198,105.204 738,127.5C 732.54,139.337 723.373,143.503 710.5,140C 703.164,137.843 698.664,133.01 697,125.5C 694.039,112.098 698.539,102.431 710.5,96.5 Z M 713.5,105.5 C 723.307,104.467 728.307,108.967 728.5,119C 728.171,130.019 722.838,134.019 712.5,131C 707.854,125.689 706.354,119.523 708,112.5C 708.967,109.379 710.8,107.046 713.5,105.5 Z"/></g>
<g><path style="opacity:0.955" fill="#8a5bf6" d="M 763.5,96.5 C 777.315,94.4792 784.148,100.479 784,114.5C 784.5,122.827 784.666,131.16 784.5,139.5C 780.833,139.5 777.167,139.5 773.5,139.5C 773.824,129.783 773.324,120.116 772,110.5C 769.36,105.547 765.527,104.38 760.5,107C 758.623,109.251 757.123,111.751 756,114.5C 755.5,122.827 755.334,131.16 755.5,139.5C 751.833,139.5 748.167,139.5 744.5,139.5C 744.5,125.5 744.5,111.5 744.5,97.5C 747.5,97.5 750.5,97.5 753.5,97.5C 753.334,101.514 753.501,105.514 754,109.5C 755.261,103.595 758.428,99.2614 763.5,96.5 Z"/></g>
<g><path style="opacity:0.932" fill="#eb4798" d="M 799.5,96.5 C 805.262,96.1493 810.928,96.6493 816.5,98C 821.944,99.9416 824.944,103.775 825.5,109.5C 822.687,109.548 820.021,110.215 817.5,111.5C 813.33,104.777 807.663,103.11 800.5,106.5C 799.008,109.767 800.008,111.934 803.5,113C 808.913,114.02 814.246,115.353 819.5,117C 827.608,122.515 828.608,129.182 822.5,137C 814.138,140.865 805.472,141.532 796.5,139C 790.856,137.196 788.189,133.362 788.5,127.5C 790.937,127.244 793.271,126.577 795.5,125.5C 800.261,132.394 806.594,134.228 814.5,131C 817.158,128.614 816.825,126.614 813.5,125C 808.543,123.511 803.543,122.178 798.5,121C 789.928,117.951 787.095,112.118 790,103.5C 792.505,100.147 795.671,97.8141 799.5,96.5 Z"/></g>
<g><path style="opacity:0.965" fill="#324054" d="M 25.5,97.5 C 29.1667,97.5 32.8333,97.5 36.5,97.5C 36.1355,107.557 36.6355,117.557 38,127.5C 42.2373,132.808 46.5706,132.808 51,127.5C 51.8624,125.913 52.5291,124.246 53,122.5C 53.4997,114.173 53.6664,105.84 53.5,97.5C 57.1667,97.5 60.8333,97.5 64.5,97.5C 64.5,111.5 64.5,125.5 64.5,139.5C 61.5,139.5 58.5,139.5 55.5,139.5C 55.6655,135.486 55.4988,131.486 55,127.5C 52.684,138.913 45.8506,143.08 34.5,140C 28.9851,136.812 26.1517,131.978 26,125.5C 25.5002,116.173 25.3335,106.839 25.5,97.5 Z"/></g>
<g><path style="opacity:0.94" fill="#324054" d="M 186.5,97.5 C 190.555,97.1758 194.555,97.5091 198.5,98.5C 201.766,109.131 204.933,119.798 208,130.5C 211.937,119.756 215.104,108.756 217.5,97.5C 221.5,97.5 225.5,97.5 229.5,97.5C 225.111,111.168 220.611,124.835 216,138.5C 210.886,139.804 205.719,139.804 200.5,138.5C 195.427,124.947 190.76,111.281 186.5,97.5 Z"/></g>
<g><path style="opacity:0.938" fill="#324054" d="M 308.5,97.5 C 312.167,97.5 315.833,97.5 319.5,97.5C 319.179,105.561 319.679,113.561 321,121.5C 322.449,126.218 325.615,127.718 330.5,126C 332.041,124.421 333.208,122.587 334,120.5C 335.356,112.905 335.856,105.238 335.5,97.5C 339.167,97.5 342.833,97.5 346.5,97.5C 346.667,110.504 346.5,123.504 346,136.5C 344.221,148.56 337.221,154.56 325,154.5C 318.042,154.764 312.209,152.431 307.5,147.5C 308.306,144.554 309.639,141.888 311.5,139.5C 319.47,145.988 327.303,145.988 335,139.5C 337.285,134.04 337.951,128.373 337,122.5C 334.948,134.445 328.114,138.611 316.5,135C 313.131,132.635 310.964,129.468 310,125.5C 308.684,116.218 308.184,106.884 308.5,97.5 Z"/></g>
<g><path style="opacity:0.973" fill="#324054" d="M 398.5,97.5 C 402.167,97.5 405.833,97.5 409.5,97.5C 409.141,107.224 409.641,116.891 411,126.5C 414.772,132.735 419.106,133.068 424,127.5C 424.862,125.913 425.529,124.246 426,122.5C 426.5,114.173 426.666,105.84 426.5,97.5C 430.167,97.5 433.833,97.5 437.5,97.5C 437.5,111.5 437.5,125.5 437.5,139.5C 434.5,139.5 431.5,139.5 428.5,139.5C 428.666,135.486 428.499,131.486 428,127.5C 425.684,138.913 418.851,143.08 407.5,140C 401.689,136.55 398.856,131.384 399,124.5C 398.5,115.506 398.334,106.506 398.5,97.5 Z"/></g>
<g><path style="opacity:0.918" fill="#13b7a5" d="M 680.5,97.5 C 684.167,97.5 687.833,97.5 691.5,97.5C 691.5,111.5 691.5,125.5 691.5,139.5C 687.833,139.5 684.167,139.5 680.5,139.5C 680.5,125.5 680.5,111.5 680.5,97.5 Z"/></g>
<g><path style="opacity:0.929" fill="#324054" d="M 830.5,128.5 C 838.81,126.337 842.644,129.337 842,137.5C 838.743,140.428 834.909,141.262 830.5,140C 826.649,136.188 826.649,132.354 830.5,128.5 Z"/></g>
<g><path style="opacity:0.79" fill="#64748b" d="M 194.5,177.5 C 195.8,179.223 196.467,181.39 196.5,184C 196.167,186.167 195.833,188.333 195.5,190.5C 194.508,186.217 194.174,181.884 194.5,177.5 Z"/></g>
<g><path style="opacity:0.752" fill="#63738a" d="M 313.5,177.5 C 314.5,177.5 315.5,177.5 316.5,177.5C 316.343,178.873 316.51,180.207 317,181.5C 321.411,179.566 323.244,181.066 322.5,186C 322.167,187.5 321.833,189 321.5,190.5C 319.64,180.036 317.973,180.036 316.5,190.5C 314.061,191.053 311.727,191.053 309.5,190.5C 308.752,187.503 308.085,184.503 307.5,181.5C 308.145,180.354 308.978,179.354 310,178.5C 310.71,179.973 311.876,180.64 313.5,180.5C 313.5,179.5 313.5,178.5 313.5,177.5 Z M 310.5,183.5 C 311.5,183.5 312.5,183.5 313.5,183.5C 313.785,185.288 313.452,186.955 312.5,188.5C 310.783,187.332 310.116,185.665 310.5,183.5 Z"/></g>
<g><path style="opacity:0.8" fill="#63738a" d="M 490.5,177.5 C 492.167,177.5 493.833,177.5 495.5,177.5C 495.646,179.942 494.813,180.609 493,179.5C 492.517,180.448 492.351,181.448 492.5,182.5C 495.09,182.604 497.423,181.937 499.5,180.5C 501.601,180.632 503.101,181.632 504,183.5C 505.864,180.793 508.364,179.959 511.5,181C 512.451,184.057 512.784,187.223 512.5,190.5C 510.599,190.433 508.766,190.767 507,191.5C 505.347,191.18 504.347,190.18 504,188.5C 501.763,192.02 499.096,192.353 496,189.5C 494.05,182.936 493.217,183.269 493.5,190.5C 492.5,190.5 491.5,190.5 490.5,190.5C 490.84,187.856 490.173,185.523 488.5,183.5C 489.025,182.808 489.692,182.308 490.5,182C 489.587,180.586 489.587,179.086 490.5,177.5 Z M 498.5,182.5 C 499.756,182.461 500.756,182.961 501.5,184C 500.167,184.667 498.833,184.667 497.5,184C 498.056,183.617 498.389,183.117 498.5,182.5 Z M 506.5,184.5 C 507.543,182.148 508.876,181.981 510.5,184C 509.207,184.49 507.873,184.657 506.5,184.5 Z M 497.5,186.5 C 504.907,186.215 505.574,186.881 499.5,188.5C 498.287,188.253 497.62,187.586 497.5,186.5 Z M 507.5,186.5 C 511.276,186.469 511.443,187.136 508,188.5C 506.316,188.317 506.15,187.65 507.5,186.5 Z"/></g>
<g><path style="opacity:0.502" fill="#65738a" d="M 730.5,177.5 C 731.5,177.5 732.5,177.5 733.5,177.5C 733.5,181.833 733.5,186.167 733.5,190.5C 732.5,190.5 731.5,190.5 730.5,190.5C 730.5,186.167 730.5,181.833 730.5,177.5 Z"/></g>
<g><path style="opacity:0.747" fill="#63738a" d="M 279.5,177.5 C 280.5,177.5 281.5,177.5 282.5,177.5C 282.5,178.5 282.5,179.5 282.5,180.5C 285.808,179.974 287.974,181.307 289,184.5C 290.029,181.125 292.196,179.958 295.5,181C 297.192,182.401 297.859,184.234 297.5,186.5C 295.396,186.201 293.396,186.534 291.5,187.5C 293.135,188.681 294.802,188.681 296.5,187.5C 297.739,189.007 297.405,190.174 295.5,191C 292.904,191.458 290.737,190.625 289,188.5C 288.29,189.973 287.124,190.64 285.5,190.5C 284.5,179.833 283.5,179.833 282.5,190.5C 280.061,191.053 277.727,191.053 275.5,190.5C 274.682,187.893 274.182,185.226 274,182.5C 273.51,183.793 273.343,185.127 273.5,186.5C 271.143,186.337 268.81,186.503 266.5,187C 268.728,188.081 271.061,188.581 273.5,188.5C 271.037,191.931 268.204,192.265 265,189.5C 262.973,182.537 265.306,179.871 272,181.5C 273.314,180.687 274.481,179.687 275.5,178.5C 276.524,179.853 277.857,180.52 279.5,180.5C 279.5,179.5 279.5,178.5 279.5,177.5 Z M 268.5,182.5 C 271.137,184.154 270.803,184.654 267.5,184C 268.056,183.617 268.389,183.117 268.5,182.5 Z M 292.5,182.5 C 293.756,182.461 294.756,182.961 295.5,184C 294.167,184.667 292.833,184.667 291.5,184C 292.056,183.617 292.389,183.117 292.5,182.5 Z M 276.5,183.5 C 277.5,183.5 278.5,183.5 279.5,183.5C 279.5,185.167 279.5,186.833 279.5,188.5C 278.5,188.5 277.5,188.5 276.5,188.5C 276.5,186.833 276.5,185.167 276.5,183.5 Z"/></g>
<g><path style="opacity:0.875" fill="#637389" d="M 140.5,183.5 C 141.338,183.158 141.672,182.492 141.5,181.5C 144.542,179.968 147.376,180.301 150,182.5C 150.689,181.643 151.522,180.977 152.5,180.5C 153.48,183.086 153.813,185.753 153.5,188.5C 154.675,188.719 155.675,188.386 156.5,187.5C 157.06,185.146 157.727,182.813 158.5,180.5C 159.487,183.768 159.82,187.102 159.5,190.5C 155.907,192.467 152.907,191.8 150.5,188.5C 147.38,192.413 144.214,192.413 141,188.5C 140.506,186.866 140.34,185.199 140.5,183.5 Z M 144.5,182.5 C 146.564,182.762 147.897,183.929 148.5,186C 147.383,187.892 145.716,188.725 143.5,188.5C 143.325,186.379 143.659,184.379 144.5,182.5 Z"/></g>
<g><path style="opacity:0.986" fill="#637389" d="M 160.5,180.5 C 162.389,181.38 164.389,181.38 166.5,180.5C 166.5,181.5 166.5,182.5 166.5,183.5C 165.5,183.5 164.5,183.5 163.5,183.5C 163.5,185.833 163.5,188.167 163.5,190.5C 162.5,190.5 161.5,190.5 160.5,190.5C 160.5,187.167 160.5,183.833 160.5,180.5 Z"/></g>
<g><path style="opacity:0.766" fill="#63738a" d="M 171.5,177.5 C 173.144,177.286 174.644,177.62 176,178.5C 176.309,180.513 175.642,180.846 174,179.5C 172.099,180.983 172.433,181.983 175,182.5C 178.676,179.57 182.009,179.903 185,183.5C 186.481,180.92 188.648,180.087 191.5,181C 193.155,182.444 193.822,184.278 193.5,186.5C 191.396,186.201 189.396,186.534 187.5,187.5C 189.135,188.681 190.802,188.681 192.5,187.5C 193.739,189.007 193.405,190.174 191.5,191C 188.692,191.92 186.525,191.087 185,188.5C 179.553,193.041 176.053,191.708 174.5,184.5C 173.833,186.5 173.167,188.5 172.5,190.5C 169.45,186.23 169.117,181.896 171.5,177.5 Z M 179.5,182.5 C 180.376,182.369 181.043,182.702 181.5,183.5C 179.192,184.873 178.525,184.54 179.5,182.5 Z M 188.5,182.5 C 189.756,182.461 190.756,182.961 191.5,184C 190.167,184.667 188.833,184.667 187.5,184C 188.056,183.617 188.389,183.117 188.5,182.5 Z M 178.5,186.5 C 180.527,186.338 182.527,186.505 184.5,187C 182.03,189.014 180.03,188.847 178.5,186.5 Z"/></g>
<g><path style="opacity:0.625" fill="#63738a" d="M 197.5,177.5 C 198.675,177.281 199.675,177.614 200.5,178.5C 200.33,182.318 200.33,186.318 200.5,190.5C 199.5,190.5 198.5,190.5 197.5,190.5C 197.736,185.987 197.736,181.653 197.5,177.5 Z"/></g>
<g><path style="opacity:0.923" fill="#63738a" d="M 298.5,180.5 C 300.389,181.38 302.389,181.38 304.5,180.5C 304.5,181.5 304.5,182.5 304.5,183.5C 303.5,183.5 302.5,183.5 301.5,183.5C 301.301,185.96 300.635,188.293 299.5,190.5C 298.513,187.232 298.18,183.898 298.5,180.5 Z"/></g>
<g><path style="opacity:0.763" fill="#63738a" d="M 347.5,184.5 C 345.073,183.721 345.073,182.554 347.5,181C 349.167,180.333 350.833,180.333 352.5,181C 353.282,183.74 353.782,186.574 354,189.5C 354.498,186.518 354.665,183.518 354.5,180.5C 358.989,180.944 363.323,181.111 367.5,181C 369.155,182.444 369.822,184.278 369.5,186.5C 367.143,186.337 364.81,186.503 362.5,187C 364.782,188.297 367.115,188.797 369.5,188.5C 367.037,191.931 364.204,192.265 361,189.5C 360.808,187.423 360.308,185.423 359.5,183.5C 358.914,183.709 358.414,184.043 358,184.5C 357.505,186.473 357.338,188.473 357.5,190.5C 353.713,190.78 350.047,190.78 346.5,190.5C 345.229,188.194 345.562,186.194 347.5,184.5 Z M 347.5,184.5 C 348.543,182.148 349.876,181.981 351.5,184C 350.207,184.49 348.873,184.657 347.5,184.5 Z M 364.5,182.5 C 367.137,184.154 366.803,184.654 363.5,184C 364.056,183.617 364.389,183.117 364.5,182.5 Z M 348.5,186.5 C 352.276,186.469 352.443,187.136 349,188.5C 347.316,188.317 347.15,187.65 348.5,186.5 Z"/></g>
<g><path style="opacity:0.839" fill="#63738a" d="M 384.5,177.5 C 386.429,177.231 388.095,177.731 389.5,179C 388.167,179.667 386.833,180.333 385.5,181C 386.5,181.833 387.5,182.667 388.5,183.5C 387.119,185.635 386.119,187.968 385.5,190.5C 384.833,188.5 384.167,186.5 383.5,184.5C 382.883,190.469 379.883,192.303 374.5,190C 372.337,187.557 372.17,185.057 374,182.5C 376.795,179.887 379.629,179.887 382.5,182.5C 383.322,180.861 383.989,179.195 384.5,177.5 Z M 377.5,182.5 C 381.109,184.424 381.275,186.424 378,188.5C 374.911,186.796 374.745,184.796 377.5,182.5 Z"/></g>
<g><path style="opacity:0.775" fill="#637389" d="M 392.5,177.5 C 394.942,177.354 395.609,178.187 394.5,180C 395.191,181.067 395.691,182.234 396,183.5C 399,179.5 402,179.5 405,183.5C 405.483,182.552 405.649,181.552 405.5,180.5C 406.5,180.5 407.5,180.5 408.5,180.5C 408.5,182.833 408.5,185.167 408.5,187.5C 409.5,187.5 410.5,187.5 411.5,187.5C 411.338,185.473 411.505,183.473 412,181.5C 412.414,181.043 412.914,180.709 413.5,180.5C 414.48,183.086 414.813,185.753 414.5,188.5C 415.675,188.281 416.675,188.614 417.5,189.5C 417.023,190.931 416.357,192.264 415.5,193.5C 414.808,192.975 414.308,192.308 414,191.5C 411.847,194.352 409.347,194.852 406.5,193C 405.289,192.107 405.289,191.274 406.5,190.5C 408.198,191.681 409.865,191.681 411.5,190.5C 410.34,190.563 409.006,190.23 407.5,189.5C 406.808,188.975 406.308,188.308 406,187.5C 403.115,192.351 399.782,192.684 396,188.5C 396.026,192.305 394.192,194.305 390.5,194.5C 392.495,188.855 393.161,183.188 392.5,177.5 Z M 399.5,182.5 C 400.496,182.414 401.329,182.748 402,183.5C 402.494,185.134 402.66,186.801 402.5,188.5C 401.167,188.5 399.833,188.5 398.5,188.5C 398.325,186.379 398.659,184.379 399.5,182.5 Z"/></g>
<g><path style="opacity:0.789" fill="#63738a" d="M 481.5,184.5 C 483.488,185.926 485.155,187.76 486.5,190C 485.446,194.256 484.113,194.423 482.5,190.5C 480.025,191.687 477.691,191.353 475.5,189.5C 472.578,192.034 469.578,192.034 466.5,189.5C 463.284,192.32 460.451,191.987 458,188.5C 457.29,189.973 456.124,190.64 454.5,190.5C 453.907,180.04 452.24,180.04 449.5,190.5C 448.167,187.167 448.167,183.833 449.5,180.5C 451.343,180.755 453.343,180.922 455.5,181C 456.047,181.925 456.713,182.758 457.5,183.5C 460.077,179.921 463.077,179.588 466.5,182.5C 469.5,179.833 472.5,179.833 475.5,182.5C 478.552,179.689 481.219,179.856 483.5,183C 483.164,184.03 482.497,184.53 481.5,184.5 Z M 461.5,182.5 C 462.756,182.461 463.756,182.961 464.5,184C 463.167,184.667 461.833,184.667 460.5,184C 461.056,183.617 461.389,183.117 461.5,182.5 Z M 472.5,184.5 C 471.325,184.719 470.325,184.386 469.5,183.5C 471.052,182.202 472.052,182.535 472.5,184.5 Z M 481.5,184.5 C 480.325,184.719 479.325,184.386 478.5,183.5C 479.86,182.335 480.86,182.668 481.5,184.5 Z M 466.5,184.5 C 468.637,185.942 470.97,187.109 473.5,188C 469.824,187.437 466.158,187.604 462.5,188.5C 461.833,188.167 461.167,187.833 460.5,187.5C 462.975,187.036 464.975,186.036 466.5,184.5 Z M 472.5,184.5 C 475.47,185.549 478.47,186.716 481.5,188C 477.832,188.498 474.832,187.331 472.5,184.5 Z"/></g>
<g><path style="opacity:0.956" fill="#63738a" d="M 525.5,180.5 C 528.695,179.961 531.195,180.961 533,183.5C 533.483,182.552 533.649,181.552 533.5,180.5C 535.857,180.337 538.19,180.503 540.5,181C 537.037,183.195 535.704,186.361 536.5,190.5C 534.876,190.64 533.71,189.973 533,188.5C 528.119,192.988 524.952,191.988 523.5,185.5C 523.437,183.486 524.103,181.819 525.5,180.5 Z M 527.5,182.5 C 528.496,182.414 529.329,182.748 530,183.5C 530.494,185.134 530.66,186.801 530.5,188.5C 525.679,188.193 524.679,186.193 527.5,182.5 Z"/></g>
<g><path style="opacity:0.854" fill="#63738a" d="M 569.5,177.5 C 570.675,177.281 571.675,177.614 572.5,178.5C 571.494,179.396 571.494,180.062 572.5,180.5C 573.167,179.833 573.833,179.167 574.5,178.5C 576.149,179.706 577.649,181.039 579,182.5C 582.55,179.554 585.216,180.221 587,184.5C 587.219,183.062 587.719,181.729 588.5,180.5C 592.398,180.956 596.398,181.123 600.5,181C 601.787,184.125 601.787,187.291 600.5,190.5C 598.991,179.975 596.991,179.975 594.5,190.5C 592.584,179.899 591.25,179.899 590.5,190.5C 588.876,190.64 587.71,189.973 587,188.5C 584.763,192.02 582.096,192.353 579,189.5C 577.867,191.211 576.367,191.711 574.5,191C 573.875,188.2 573.208,185.366 572.5,182.5C 571.833,185.167 571.167,187.833 570.5,190.5C 569.808,189.975 569.308,189.308 569,188.5C 566.763,192.02 564.096,192.353 561,189.5C 558.546,191.013 556.879,190.346 556,187.5C 555.626,188.416 555.126,189.25 554.5,190C 548.858,193.009 544.858,191.676 542.5,186C 542.965,183.036 544.632,181.203 547.5,180.5C 549.359,181.69 551.192,181.69 553,180.5C 554.221,181.272 555.221,182.272 556,183.5C 557.421,180.378 559.087,180.044 561,182.5C 562.808,180.604 564.975,180.104 567.5,181C 568.622,184.945 567.622,185.445 564.5,182.5C 563.119,183 562.453,184 562.5,185.5C 563.475,188.933 565.142,189.266 567.5,186.5C 568.086,186.709 568.586,187.043 569,187.5C 569.273,183.969 569.44,180.635 569.5,177.5 Z M 547.5,182.5 C 548.289,182.783 548.956,183.283 549.5,184C 548.167,184.667 546.833,184.667 545.5,184C 546.416,183.722 547.082,183.222 547.5,182.5 Z M 581.5,182.5 C 582.756,182.461 583.756,182.961 584.5,184C 583.167,184.667 581.833,184.667 580.5,184C 581.056,183.617 581.389,183.117 581.5,182.5 Z M 552.5,183.5 C 555.167,185.167 555.167,186.833 552.5,188.5C 550.16,188.506 547.827,188.006 545.5,187C 547.81,186.503 550.143,186.337 552.5,186.5C 552.5,185.5 552.5,184.5 552.5,183.5 Z M 575.5,183.5 C 576.552,183.351 577.552,183.517 578.5,184C 577.167,185.333 577.167,186.667 578.5,188C 577.552,188.483 576.552,188.649 575.5,188.5C 575.5,186.833 575.5,185.167 575.5,183.5 Z M 559.5,184.5 C 559.5,185.5 559.5,186.5 559.5,187.5C 556.833,186.5 556.833,185.5 559.5,184.5 Z M 580.5,186.5 C 587.907,186.215 588.574,186.881 582.5,188.5C 581.287,188.253 580.62,187.586 580.5,186.5 Z"/></g>
<g><path style="opacity:0.602" fill="#63738a" d="M 622.5,178.5 C 624.257,179.084 625.59,180.251 626.5,182C 624.997,183.921 624.331,186.088 624.5,188.5C 626.942,188.354 627.609,189.187 626.5,191C 624.633,191.711 623.133,191.211 622,189.5C 621.667,187.167 621.333,184.833 621,182.5C 620.818,185.226 620.318,187.893 619.5,190.5C 617.597,180.081 615.93,180.081 614.5,190.5C 613.178,190.67 612.011,190.337 611,189.5C 603.933,192.608 601.266,190.275 603,182.5C 606.156,179.601 608.822,179.935 611,183.5C 611.483,182.552 611.649,181.552 611.5,180.5C 614.277,180.786 617.111,181.12 620,181.5C 621.417,180.922 622.25,179.922 622.5,178.5 Z M 606.5,182.5 C 609.137,184.154 608.803,184.654 605.5,184C 606.056,183.617 606.389,183.117 606.5,182.5 Z M 604.5,187.5 C 606.628,186.371 608.961,186.204 611.5,187C 609.157,188.415 606.823,188.582 604.5,187.5 Z"/></g>
<g><path style="opacity:0.794" fill="#63738a" d="M 640.5,180.5 C 643.547,179.855 645.713,180.855 647,183.5C 647.368,182.09 648.201,181.09 649.5,180.5C 653.008,181.392 656.675,181.558 660.5,181C 662.155,182.444 662.822,184.278 662.5,186.5C 660.396,186.201 658.396,186.534 656.5,187.5C 658.576,188.1 660.576,188.433 662.5,188.5C 660.271,192.055 657.604,192.388 654.5,189.5C 652.214,181.626 650.88,181.959 650.5,190.5C 647.421,190.26 644.421,190.593 641.5,191.5C 639.227,190.625 638.227,188.958 638.5,186.5C 621.217,186.155 621.217,185.155 638.5,183.5C 639.193,182.482 639.859,181.482 640.5,180.5 Z M 642.5,182.5 C 645.137,184.154 644.803,184.654 641.5,184C 642.056,183.617 642.389,183.117 642.5,182.5 Z M 657.5,182.5 C 658.376,182.369 659.043,182.702 659.5,183.5C 657.192,184.873 656.525,184.54 657.5,182.5 Z M 641.5,186.5 C 645.276,186.469 645.443,187.136 642,188.5C 640.316,188.317 640.15,187.65 641.5,186.5 Z"/></g>
<g><path style="opacity:0.796" fill="#63738a" d="M 721.5,180.5 C 723.369,182.635 724.036,185.302 723.5,188.5C 724.675,188.719 725.675,188.386 726.5,187.5C 727.06,185.146 727.727,182.813 728.5,180.5C 729.487,183.768 729.82,187.102 729.5,190.5C 723.799,192.645 720.466,190.645 719.5,184.5C 718.167,192.5 716.833,192.5 715.5,184.5C 714.28,183.289 713.113,183.289 712,184.5C 711.505,186.473 711.338,188.473 711.5,190.5C 710.178,190.67 709.011,190.337 708,189.5C 702.475,192.569 699.475,190.902 699,184.5C 698.654,186.218 698.154,187.885 697.5,189.5C 696.635,190.583 695.635,190.749 694.5,190C 693.161,184.142 692.161,184.308 691.5,190.5C 690.167,190.5 688.833,190.5 687.5,190.5C 686.602,181.604 685.602,181.438 684.5,190C 680.793,192.209 677.96,191.376 676,187.5C 674.994,190.89 672.994,191.89 670,190.5C 669.517,191.448 669.351,192.448 669.5,193.5C 668.5,193.5 667.5,193.5 666.5,193.5C 666.174,189.116 666.508,184.783 667.5,180.5C 669.343,180.755 671.343,180.922 673.5,181C 674.849,181.772 675.682,182.939 676,184.5C 678.195,180.128 681.195,179.461 685,182.5C 685.308,181.692 685.808,181.025 686.5,180.5C 687.935,181.824 688.935,183.49 689.5,185.5C 689.698,182.215 691.365,180.548 694.5,180.5C 694.372,182.655 694.872,184.655 696,186.5C 696.233,184.22 697.066,182.22 698.5,180.5C 699.192,181.025 699.692,181.692 700,182.5C 702.667,179.833 705.333,179.833 708,182.5C 711.664,181.749 715.164,180.082 718.5,177.5C 720.516,177.516 721.516,178.516 721.5,180.5 Z M 721.5,180.5 C 720.457,182.852 719.124,183.019 717.5,181C 718.564,179.489 719.897,179.323 721.5,180.5 Z M 670.5,182.5 C 672.484,182.484 673.484,183.484 673.5,185.5C 672.167,189.5 670.833,189.5 669.5,185.5C 669.685,184.416 670.018,183.416 670.5,182.5 Z M 680.5,182.5 C 684.109,184.424 684.275,186.424 681,188.5C 677.897,186.888 677.73,184.888 680.5,182.5 Z M 703.5,182.5 C 706.137,184.154 705.803,184.654 702.5,184C 703.056,183.617 703.389,183.117 703.5,182.5 Z M 701.5,187.5 C 703.628,186.371 705.961,186.204 708.5,187C 706.214,188.664 703.881,188.83 701.5,187.5 Z"/></g>
<g><path style="opacity:0.502" fill="#627388" d="M 513.5,180.5 C 515.5,180.5 517.5,180.5 519.5,180.5C 519.539,182.359 518.706,183.692 517,184.5C 516.505,186.473 516.338,188.473 516.5,190.5C 515.5,190.5 514.5,190.5 513.5,190.5C 513.5,187.167 513.5,183.833 513.5,180.5 Z"/></g>
<g><path style="opacity:0.738" fill="#63738a" d="M 141.5,181.5 C 140.662,181.842 140.328,182.508 140.5,183.5C 138.837,185.438 138.171,187.772 138.5,190.5C 137.5,190.5 136.5,190.5 135.5,190.5C 135.455,186.239 134.122,182.405 131.5,179C 132.5,178.333 133.5,178.333 134.5,179C 135.46,180.419 136.293,181.919 137,183.5C 138.02,182.109 138.853,180.609 139.5,179C 140.5,178.333 141.5,178.333 142.5,179C 141.748,179.671 141.414,180.504 141.5,181.5 Z"/></g>
<g><path style="opacity:0.802" fill="#63738a" d="M 228.5,184.5 C 232.846,184.666 237.179,184.499 241.5,184C 240.663,182.989 240.33,181.822 240.5,180.5C 241.5,180.5 242.5,180.5 243.5,180.5C 244.231,187.435 245.064,187.769 246,181.5C 247.011,180.663 248.178,180.33 249.5,180.5C 249.838,182.854 250.338,185.187 251,187.5C 251.361,183.8 252.527,180.467 254.5,177.5C 255.5,177.5 256.5,177.5 257.5,177.5C 257.343,178.873 257.51,180.207 258,181.5C 262.411,179.566 264.244,181.066 263.5,186C 263.167,187.5 262.833,189 262.5,190.5C 260.707,179.965 259.041,179.965 257.5,190.5C 256.5,190.5 255.5,190.5 254.5,190.5C 254.66,188.801 254.494,187.134 254,185.5C 251.82,192.098 249.82,192.098 248,185.5C 246.991,187.025 246.491,188.692 246.5,190.5C 245.167,190.5 243.833,190.5 242.5,190.5C 242.67,189.178 242.337,188.011 241.5,187C 237.179,186.501 232.846,186.334 228.5,186.5C 228.189,191.159 225.856,192.492 221.5,190.5C 218.58,194.139 214.913,195.139 210.5,193.5C 210.5,192.5 210.5,191.5 210.5,190.5C 209.5,190.5 208.5,190.5 207.5,190.5C 206.907,180.04 205.24,180.04 202.5,190.5C 201.167,187.167 201.167,183.833 202.5,180.5C 204.343,180.755 206.343,180.922 208.5,181C 209.126,181.75 209.626,182.584 210,183.5C 210.903,182.299 212.069,181.465 213.5,181C 217.143,180.88 220.643,180.714 224,180.5C 226.616,180.617 228.116,181.95 228.5,184.5 Z M 228.5,184.5 C 228.265,185.097 227.765,185.43 227,185.5C 225.5,185 224,184.5 222.5,184C 223.025,183.308 223.692,182.808 224.5,182.5C 225.622,183.63 226.956,184.297 228.5,184.5 Z M 219.5,188.5 C 213.792,188.508 213.459,188.008 218.5,187C 219.227,185.601 219.727,184.101 220,182.5C 220.309,183.766 220.809,184.933 221.5,186C 223.246,186.471 224.913,187.138 226.5,188C 223.972,187.895 221.638,188.062 219.5,188.5 Z M 214.5,182.5 C 216.048,182.821 216.715,183.821 216.5,185.5C 213.752,185.598 213.086,184.598 214.5,182.5 Z"/></g>
<g><path style="opacity:0.657" fill="#63738a" d="M 426.5,184.5 C 428.167,187.167 429.833,187.167 431.5,184.5C 429.348,183.923 429.015,182.756 430.5,181C 434.166,179.729 436.666,180.896 438,184.5C 438.613,180.682 440.613,179.682 444,181.5C 444.49,180.207 444.657,178.873 444.5,177.5C 445.5,177.5 446.5,177.5 447.5,177.5C 447.5,181.833 447.5,186.167 447.5,190.5C 443.201,192.789 440.034,191.789 438,187.5C 437.716,189.886 436.716,190.552 435,189.5C 433,192.167 431,192.167 429,189.5C 425.903,192.333 423.07,192.167 420.5,189C 420.833,188.5 421.167,188 421.5,187.5C 423.098,188.485 424.765,188.651 426.5,188C 424.649,187.163 422.816,186.329 421,185.5C 420.527,180.574 422.694,179.24 427.5,181.5C 428.798,183.052 428.465,184.052 426.5,184.5 Z M 441.5,182.5 C 443.484,182.484 444.484,183.484 444.5,185.5C 443.167,189.5 441.833,189.5 440.5,185.5C 440.685,184.416 441.018,183.416 441.5,182.5 Z M 431.5,184.5 C 432.14,182.668 433.14,182.335 434.5,183.5C 433.675,184.386 432.675,184.719 431.5,184.5 Z M 426.5,184.5 C 425.127,184.657 423.793,184.49 422.5,184C 424.124,181.981 425.457,182.148 426.5,184.5 Z M 431.5,186.5 C 432.675,186.281 433.675,186.614 434.5,187.5C 432.948,188.798 431.948,188.465 431.5,186.5 Z"/></g>
<g><path style="opacity:0.812" fill="#637389" d="M 334.5,190.5 C 334.217,189.711 333.717,189.044 333,188.5C 330.271,191.864 327.271,192.197 324,189.5C 321.832,183.021 323.999,180.188 330.5,181C 331.874,184.41 332.541,184.243 332.5,180.5C 333.5,180.5 334.5,180.5 335.5,180.5C 335.192,182.924 335.526,185.257 336.5,187.5C 337.086,187.291 337.586,186.957 338,186.5C 338.495,184.527 338.662,182.527 338.5,180.5C 339.5,180.5 340.5,180.5 341.5,180.5C 341.854,184.637 341.354,188.637 340,192.5C 337.755,194.792 335.255,195.125 332.5,193.5C 332.285,191.821 332.952,190.821 334.5,190.5 Z M 325.5,187.5 C 327.628,186.371 329.961,186.204 332.5,187C 330.157,188.415 327.823,188.582 325.5,187.5 Z M 327.5,182.5 C 328.289,182.783 328.956,183.283 329.5,184C 328.167,184.667 326.833,184.667 325.5,184C 326.416,183.722 327.082,183.222 327.5,182.5 Z M 334.5,190.5 C 336.109,190.094 337.443,190.094 338.5,190.5C 337.042,191.782 335.708,191.782 334.5,190.5 Z"/></g>
<g><path style="opacity:0.738" fill="#62728a" d="M 517.5,188.5 C 518.5,188.5 519.5,188.5 520.5,188.5C 520.884,190.665 520.217,192.332 518.5,193.5C 517.548,191.955 517.215,190.288 517.5,188.5 Z"/></g>
<g><path style="opacity:0.735" fill="#63738a" d="M 602.5,203.5 C 604.43,207.373 605.097,211.706 604.5,216.5C 597.109,218.717 594.275,216.051 596,208.5C 597.733,206.398 599.733,206.065 602,207.5C 602.49,206.207 602.657,204.873 602.5,203.5 Z M 599.5,208.5 C 603.109,210.424 603.275,212.424 600,214.5C 596.924,212.699 596.758,210.699 599.5,208.5 Z"/></g>
<g><path style="opacity:0.896" fill="#637389" d="M 517.5,204.5 C 519.086,205.675 520.586,207.009 522,208.5C 529.038,205.187 531.705,207.521 530,215.5C 527.333,218.167 524.667,218.167 522,215.5C 520.806,217.525 519.306,217.859 517.5,216.5C 516.752,213.503 516.085,210.503 515.5,207.5C 516.193,206.482 516.859,205.482 517.5,204.5 Z M 525.5,208.5 C 529.109,210.424 529.275,212.424 526,214.5C 522.897,212.888 522.73,210.888 525.5,208.5 Z M 518.5,209.5 C 519.5,209.5 520.5,209.5 521.5,209.5C 521.5,211.167 521.5,212.833 521.5,214.5C 520.5,214.5 519.5,214.5 518.5,214.5C 518.5,212.833 518.5,211.167 518.5,209.5 Z"/></g>
<g><path style="opacity:0.952" fill="#637389" d="M 128.5,206.5 C 132.98,206.74 137.48,207.073 142,207.5C 142.821,210.554 142.655,213.554 141.5,216.5C 139.999,205.967 137.999,205.967 135.5,216.5C 133.584,205.899 132.25,205.899 131.5,216.5C 130.5,216.5 129.5,216.5 128.5,216.5C 128.5,213.167 128.5,209.833 128.5,206.5 Z"/></g>
<g><path style="opacity:0.698" fill="#63738a" d="M 158.5,210.5 C 160.832,213.331 163.832,214.498 167.5,214C 165.913,213.138 164.246,212.471 162.5,212C 161.056,206.655 163.056,205.155 168.5,207.5C 169.251,208.376 169.751,209.376 170,210.5C 173.067,205.19 176.067,205.19 179,210.5C 179.219,209.062 179.719,207.729 180.5,206.5C 182.343,206.755 184.343,206.922 186.5,207C 187.893,209.683 189.226,209.85 190.5,207.5C 193.65,205.811 196.317,206.144 198.5,208.5C 198.34,212.156 196.34,213.989 192.5,214C 194.586,214.315 196.586,214.815 198.5,215.5C 198.321,218.77 196.488,220.437 193,220.5C 191.56,219.852 190.06,219.519 188.5,219.5C 188.5,218.5 188.5,217.5 188.5,216.5C 187.5,216.5 186.5,216.5 185.5,216.5C 184.915,206.031 183.249,206.031 180.5,216.5C 179.808,215.975 179.308,215.308 179,214.5C 175.64,218.505 172.64,218.172 170,213.5C 167.949,217.928 164.949,218.595 161,215.5C 158.21,218.08 155.376,218.08 152.5,215.5C 145.215,218.764 142.382,216.431 144,208.5C 146.795,205.887 149.629,205.887 152.5,208.5C 155.552,205.689 158.219,205.856 160.5,209C 160.164,210.03 159.497,210.53 158.5,210.5 Z M 147.5,208.5 C 150.137,210.154 149.803,210.654 146.5,210C 147.056,209.617 147.389,209.117 147.5,208.5 Z M 158.5,210.5 C 157.325,210.719 156.325,210.386 155.5,209.5C 156.86,208.335 157.86,208.668 158.5,210.5 Z M 167.5,210.5 C 166.127,210.657 164.793,210.49 163.5,210C 165.124,207.981 166.457,208.148 167.5,210.5 Z M 173.5,208.5 C 174.756,208.461 175.756,208.961 176.5,210C 175.167,210.667 173.833,210.667 172.5,210C 173.056,209.617 173.389,209.117 173.5,208.5 Z M 192.5,208.5 C 196.075,209.207 196.242,210.207 193,211.5C 191.317,210.824 191.15,209.824 192.5,208.5 Z M 152.5,211.5 C 154.512,212.228 156.512,213.062 158.5,214C 157.833,214.167 157.167,214.333 156.5,214.5C 153.657,213.229 150.823,213.229 148,214.5C 146.941,214.37 146.108,213.87 145.5,213C 148.036,212.814 150.369,212.314 152.5,211.5 Z M 172.5,212.5 C 179.907,212.215 180.574,212.881 174.5,214.5C 173.287,214.253 172.62,213.586 172.5,212.5 Z"/></g>
<g><path style="opacity:0.924" fill="#637389" d="M 282.5,206.5 C 283.5,206.5 284.5,206.5 285.5,206.5C 285.192,208.924 285.526,211.257 286.5,213.5C 287.086,213.291 287.586,212.957 288,212.5C 288.495,210.527 288.662,208.527 288.5,206.5C 289.5,206.5 290.5,206.5 291.5,206.5C 291.854,210.637 291.354,214.637 290,218.5C 287.755,220.792 285.255,221.125 282.5,219.5C 282.36,217.876 283.027,216.71 284.5,216C 282.66,213.174 281.994,210.007 282.5,206.5 Z"/></g>
<g><path style="opacity:0.795" fill="#63738a" d="M 370.5,203.5 C 372.045,204.23 372.878,205.563 373,207.5C 375.881,205.972 378.214,206.638 380,209.5C 381.481,206.92 383.648,206.087 386.5,207C 388.155,208.444 388.822,210.278 388.5,212.5C 386.396,212.201 384.396,212.534 382.5,213.5C 384.135,214.681 385.802,214.681 387.5,213.5C 388.739,215.007 388.405,216.174 386.5,217C 383.692,217.92 381.525,217.087 380,214.5C 379.29,215.973 378.124,216.64 376.5,216.5C 375.699,205.951 374.366,205.951 372.5,216.5C 370.488,217.014 368.488,217.18 366.5,217C 366.039,213.656 365.039,210.489 363.5,207.5C 364.5,206.5 365.5,205.5 366.5,204.5C 367.524,205.853 368.857,206.52 370.5,206.5C 370.5,205.5 370.5,204.5 370.5,203.5 Z M 383.5,208.5 C 384.756,208.461 385.756,208.961 386.5,210C 385.167,210.667 383.833,210.667 382.5,210C 383.056,209.617 383.389,209.117 383.5,208.5 Z M 367.5,209.5 C 368.5,209.5 369.5,209.5 370.5,209.5C 370.5,211.167 370.5,212.833 370.5,214.5C 369.5,214.5 368.5,214.5 367.5,214.5C 367.5,212.833 367.5,211.167 367.5,209.5 Z"/></g>
<g><path style="opacity:0.762" fill="#637389" d="M 442.5,206.5 C 444.344,208.279 445.01,210.612 444.5,213.5C 445.5,213.5 446.5,213.5 447.5,213.5C 447.699,211.04 448.365,208.707 449.5,206.5C 450.77,210.516 450.77,214.516 449.5,218.5C 446.665,221.253 443.999,221.087 441.5,218C 442.546,216.461 443.879,216.295 445.5,217.5C 449.445,215.906 449.445,215.573 445.5,216.5C 441.737,214.029 440.737,210.695 442.5,206.5 Z"/></g>
<g><path style="opacity:0.904" fill="#63738a" d="M 461.5,206.5 C 462.933,209.038 464.266,211.705 465.5,214.5C 466.086,214.291 466.586,213.957 467,213.5C 467.186,211.1 467.686,208.766 468.5,206.5C 469.487,209.768 469.82,213.102 469.5,216.5C 467.119,217.42 464.786,217.42 462.5,216.5C 461.513,213.232 461.18,209.898 461.5,206.5 Z"/></g>
<g><path style="opacity:0.812" fill="#63738a" d="M 492.5,213.5 C 490.461,218.372 487.628,218.705 484,214.5C 483.29,215.973 482.124,216.64 480.5,216.5C 479.915,206.031 478.249,206.031 475.5,216.5C 474.167,213.167 474.167,209.833 475.5,206.5C 477.343,206.755 479.343,206.922 481.5,207C 482.333,207.833 483.167,208.667 484,209.5C 487.473,205.283 490.473,205.616 493,210.5C 496.067,205.19 499.067,205.19 502,210.5C 503.259,206.777 505.592,205.777 509,207.5C 509.219,206.062 509.719,204.729 510.5,203.5C 511.492,207.783 511.826,212.116 511.5,216.5C 507.719,218.4 504.552,217.734 502,214.5C 498.494,218.4 495.328,218.067 492.5,213.5 Z M 487.5,208.5 C 488.756,208.461 489.756,208.961 490.5,210C 489.167,210.667 487.833,210.667 486.5,210C 487.056,209.617 487.389,209.117 487.5,208.5 Z M 496.5,208.5 C 497.756,208.461 498.756,208.961 499.5,210C 498.167,210.667 496.833,210.667 495.5,210C 496.056,209.617 496.389,209.117 496.5,208.5 Z M 506.5,208.5 C 509.747,210.479 509.914,212.479 507,214.5C 503.897,212.888 503.73,210.888 506.5,208.5 Z M 492.5,213.5 C 490.46,214.519 488.46,214.519 486.5,213.5C 488.636,212.207 490.636,212.207 492.5,213.5 Z M 495.5,212.5 C 502.907,212.215 503.574,212.881 497.5,214.5C 496.287,214.253 495.62,213.586 495.5,212.5 Z"/></g>
<g><path style="opacity:0.852" fill="#63738a" d="M 555.5,215.5 C 553.657,216.283 551.657,216.95 549.5,217.5C 545.99,215.573 545.656,213.24 548.5,210.5C 546.914,209.587 545.414,209.587 544,210.5C 543.505,212.473 543.338,214.473 543.5,216.5C 541.061,217.053 538.727,217.053 536.5,216.5C 536.02,213.373 535.02,210.54 533.5,208C 534.618,206.926 535.618,205.76 536.5,204.5C 540.086,205.77 543.586,207.103 547,208.5C 548.808,206.604 550.975,206.104 553.5,207C 554.128,209.939 554.795,212.772 555.5,215.5 Z M 548.5,210.5 C 549.543,208.148 550.876,207.981 552.5,210C 551.207,210.49 549.873,210.657 548.5,210.5 Z M 537.5,209.5 C 538.5,209.5 539.5,209.5 540.5,209.5C 540.5,211.167 540.5,212.833 540.5,214.5C 539.5,214.5 538.5,214.5 537.5,214.5C 537.5,212.833 537.5,211.167 537.5,209.5 Z M 549.5,212.5 C 553.276,212.469 553.443,213.136 550,214.5C 548.316,214.317 548.15,213.65 549.5,212.5 Z"/></g>
<g><path style="opacity:0.827" fill="#63738a" d="M 586.5,206.5 C 588.932,206.636 591.432,206.969 594,207.5C 594.821,210.554 594.655,213.554 593.5,216.5C 591.929,206.041 589.929,206.041 587.5,216.5C 586.513,213.232 586.18,209.898 586.5,206.5 Z"/></g>
<g><path style="opacity:0.804" fill="#64738a" d="M 609.5,206.5 C 611.369,208.635 612.036,211.302 611.5,214.5C 612.675,214.719 613.675,214.386 614.5,213.5C 615.06,211.146 615.727,208.813 616.5,206.5C 617.487,209.768 617.82,213.102 617.5,216.5C 615.119,217.42 612.786,217.42 610.5,216.5C 609.513,213.232 609.18,209.898 609.5,206.5 Z"/></g>
<g><path style="opacity:0.625" fill="#63738a" d="M 618.5,206.5 C 621.277,206.786 624.111,207.12 627,207.5C 627.821,210.554 627.655,213.554 626.5,216.5C 624.64,206.036 622.973,206.036 621.5,216.5C 620.5,216.5 619.5,216.5 618.5,216.5C 618.5,213.167 618.5,209.833 618.5,206.5 Z"/></g>
<g><path style="opacity:0.894" fill="#63738a" d="M 677.5,206.5 C 679.932,206.636 682.432,206.969 685,207.5C 685.821,210.554 685.655,213.554 684.5,216.5C 682.929,206.041 680.929,206.041 678.5,216.5C 677.513,213.232 677.18,209.898 677.5,206.5 Z"/></g>
<g><path style="opacity:0.881" fill="#63738a" d="M 693.5,203.5 C 695.43,207.373 696.097,211.706 695.5,216.5C 688.109,218.717 685.275,216.051 687,208.5C 688.733,206.398 690.733,206.065 693,207.5C 693.49,206.207 693.657,204.873 693.5,203.5 Z M 690.5,208.5 C 694.109,210.424 694.275,212.424 691,214.5C 688.074,212.856 687.907,210.856 690.5,208.5 Z"/></g>
<g><path style="opacity:0.78" fill="#63738a" d="M 713.5,203.5 C 714.5,203.5 715.5,203.5 716.5,203.5C 716.343,204.873 716.51,206.207 717,207.5C 721.411,205.566 723.244,207.066 722.5,212C 722.167,213.5 721.833,215 721.5,216.5C 719.64,206.036 717.973,206.036 716.5,216.5C 715.5,216.5 714.5,216.5 713.5,216.5C 713.662,214.473 713.495,212.473 713,210.5C 712.654,212.218 712.154,213.885 711.5,215.5C 710.635,216.583 709.635,216.749 708.5,216C 707.161,210.142 706.161,210.308 705.5,216.5C 704.167,216.5 702.833,216.5 701.5,216.5C 701.073,213.624 700.406,210.791 699.5,208C 699.833,207.5 700.167,207 700.5,206.5C 701.935,207.824 702.935,209.49 703.5,211.5C 703.698,208.215 705.365,206.548 708.5,206.5C 708.372,208.655 708.872,210.655 710,212.5C 710.65,209.216 711.816,206.216 713.5,203.5 Z"/></g>
<g><path style="opacity:0.849" fill="#637389" d="M 725.5,210.5 C 723.535,210.052 723.202,209.052 724.5,207.5C 726.702,206.22 728.868,206.22 731,207.5C 732.314,206.687 733.481,205.687 734.5,204.5C 735.719,205.646 737.052,206.646 738.5,207.5C 736.262,209.258 735.262,211.592 735.5,214.5C 737.355,214.272 738.188,214.939 738,216.5C 736.667,217.833 735.333,217.833 734,216.5C 732.908,213.956 732.241,211.289 732,208.5C 731.503,211.146 731.336,213.813 731.5,216.5C 729.131,216.851 726.797,217.018 724.5,217C 723.091,214.536 723.424,212.369 725.5,210.5 Z M 725.5,210.5 C 726.543,208.148 727.876,207.981 729.5,210C 728.207,210.49 726.873,210.657 725.5,210.5 Z M 726.5,212.5 C 730.276,212.469 730.443,213.136 727,214.5C 725.316,214.317 725.15,213.65 726.5,212.5 Z"/></g>
<g><path style="opacity:0.806" fill="#63738a" d="M 279.5,203.5 C 281.43,207.373 282.097,211.706 281.5,216.5C 277.81,218.409 274.643,217.742 272,214.5C 268.877,218.434 265.71,218.434 262.5,214.5C 259.38,218.413 256.214,218.413 253,214.5C 249.171,218.663 245.837,218.329 243,213.5C 242.517,214.448 242.351,215.448 242.5,216.5C 241.5,216.5 240.5,216.5 239.5,216.5C 239.783,209.269 238.95,208.936 237,215.5C 236.439,216.022 235.772,216.355 235,216.5C 233.116,214.55 231.782,212.216 231,209.5C 230.814,211.9 230.314,214.234 229.5,216.5C 228.509,212.555 228.176,208.555 228.5,204.5C 229.833,204.5 231.167,204.5 232.5,204.5C 233.657,214.478 235.657,214.812 238.5,205.5C 239.689,204.571 241.022,204.238 242.5,204.5C 242.338,206.527 242.505,208.527 243,210.5C 245.823,205.605 249.157,205.271 253,209.5C 256.202,205.614 259.535,205.614 263,209.5C 263.479,207.354 264.812,206.354 267,206.5C 269.305,206.484 270.972,207.484 272,209.5C 273.786,206.638 276.119,205.972 279,207.5C 279.49,206.207 279.657,204.873 279.5,203.5 Z M 246.5,208.5 C 249.966,209.109 250.966,210.942 249.5,214C 245.537,214.118 244.537,212.284 246.5,208.5 Z M 256.5,208.5 C 258.564,208.762 259.897,209.929 260.5,212C 259.383,213.892 257.716,214.725 255.5,214.5C 255.325,212.379 255.659,210.379 256.5,208.5 Z M 266.5,208.5 C 267.496,208.414 268.329,208.748 269,209.5C 269.494,211.134 269.66,212.801 269.5,214.5C 268.167,214.5 266.833,214.5 265.5,214.5C 265.325,212.379 265.659,210.379 266.5,208.5 Z M 276.5,208.5 C 280.109,210.424 280.275,212.424 277,214.5C 273.924,212.699 273.758,210.699 276.5,208.5 Z"/></g>
<g><path style="opacity:0.766" fill="#63738a" d="M 358.5,210.5 C 361.441,213.819 360.775,216.152 356.5,217.5C 354.399,217.368 352.899,216.368 352,214.5C 348.64,218.505 345.64,218.172 343,213.5C 342.716,215.886 341.716,216.552 340,215.5C 336.841,218.341 334.508,217.674 333,213.5C 332.517,214.448 332.351,215.448 332.5,216.5C 331.5,216.5 330.5,216.5 329.5,216.5C 329.662,214.473 329.495,212.473 329,210.5C 327.578,217.377 325.078,218.044 321.5,212.5C 319.502,217.423 316.335,218.423 312,215.5C 311.808,213.423 311.308,211.423 310.5,209.5C 309.914,209.709 309.414,210.043 309,210.5C 308.505,212.473 308.338,214.473 308.5,216.5C 307.5,216.5 306.5,216.5 305.5,216.5C 305.649,215.448 305.483,214.448 305,213.5C 303.994,216.89 301.994,217.89 299,216.5C 298.517,217.448 298.351,218.448 298.5,219.5C 297.5,219.5 296.5,219.5 295.5,219.5C 295.5,215.167 295.5,210.833 295.5,206.5C 297.857,206.337 300.19,206.503 302.5,207C 303.849,207.772 304.682,208.939 305,210.5C 305.219,209.062 305.719,207.729 306.5,206.5C 307.598,207.615 308.765,207.615 310,206.5C 310.945,206.905 311.612,207.572 312,208.5C 314.667,205.833 317.333,205.833 320,208.5C 320.308,207.692 320.808,207.025 321.5,206.5C 323.317,208.416 324.484,210.749 325,213.5C 326.327,209.109 328.327,205.775 331,203.5C 332.826,204.01 332.993,204.844 331.5,206C 332.227,207.399 332.727,208.899 333,210.5C 333.672,206.97 335.838,205.637 339.5,206.5C 339.5,205.5 339.5,204.5 339.5,203.5C 340.5,203.5 341.5,203.5 342.5,203.5C 342.337,205.857 342.503,208.19 343,210.5C 346.067,205.19 349.067,205.19 352,210.5C 352.69,206.81 354.857,205.643 358.5,207C 361.125,208.376 361.125,209.542 358.5,210.5 Z M 336.5,208.5 C 337.496,208.414 338.329,208.748 339,209.5C 339.494,211.134 339.66,212.801 339.5,214.5C 335.556,214.116 334.556,212.116 336.5,208.5 Z M 315.5,208.5 C 317.484,208.484 318.484,209.484 318.5,211.5C 318.566,213.266 317.732,214.266 316,214.5C 312.897,212.888 312.73,210.888 315.5,208.5 Z M 299.5,208.5 C 301.484,208.484 302.484,209.484 302.5,211.5C 301.167,215.5 299.833,215.5 298.5,211.5C 298.685,210.416 299.018,209.416 299.5,208.5 Z M 346.5,208.5 C 347.756,208.461 348.756,208.961 349.5,210C 348.167,210.667 346.833,210.667 345.5,210C 346.056,209.617 346.389,209.117 346.5,208.5 Z M 358.5,210.5 C 357.127,210.657 355.793,210.49 354.5,210C 356.124,207.981 357.457,208.148 358.5,210.5 Z M 352.5,211.5 C 354.512,212.228 356.512,213.062 358.5,214C 354.115,213.525 349.782,213.359 345.5,213.5C 347.969,212.832 350.302,212.165 352.5,211.5 Z"/></g>
<g><path style="opacity:0.854" fill="#637389" d="M 635.5,203.5 C 637.43,207.373 638.097,211.706 637.5,216.5C 630.045,218.88 627.212,216.214 629,208.5C 630.733,206.398 632.733,206.065 635,207.5C 635.49,206.207 635.657,204.873 635.5,203.5 Z M 632.5,208.5 C 635.747,210.479 635.914,212.479 633,214.5C 629.897,212.888 629.73,210.888 632.5,208.5 Z"/></g>
<g><path style="opacity:0.852" fill="#63738a" d="M 453.5,206.5 C 459.997,206.18 462.164,209.18 460,215.5C 452.933,218.608 450.266,216.275 452,208.5C 452.717,207.956 453.217,207.289 453.5,206.5 Z M 455.5,208.5 C 459.109,210.424 459.275,212.424 456,214.5C 452.911,212.796 452.745,210.796 455.5,208.5 Z"/></g>
<g><path style="opacity:0.792" fill="#63738a" d="M 555.5,215.5 C 555.337,213.143 555.503,210.81 556,208.5C 558.667,205.833 561.333,205.833 564,208.5C 564.494,206.866 564.66,205.199 564.5,203.5C 565.5,203.5 566.5,203.5 567.5,203.5C 567.338,205.527 567.505,207.527 568,209.5C 573.703,205.221 574.536,205.888 570.5,211.5C 571.624,212.914 572.624,214.414 573.5,216C 572.5,216.667 571.5,216.667 570.5,216C 568.332,211.301 567.332,211.468 567.5,216.5C 566.178,216.67 565.011,216.337 564,215.5C 561.177,218.061 558.343,218.061 555.5,215.5 Z M 559.5,208.5 C 560.82,209.942 562.486,210.608 564.5,210.5C 564.649,211.552 564.483,212.552 564,213.5C 563.667,213.167 563.333,212.833 563,212.5C 560.778,215.303 558.945,215.137 557.5,212C 557.978,210.697 558.645,209.531 559.5,208.5 Z"/></g>
<g><path style="opacity:0.916" fill="#637389" d="M 219.5,210.5 C 221.488,211.926 223.155,213.76 224.5,216C 224.167,216.5 223.833,217 223.5,217.5C 220.895,216.964 218.228,216.798 215.5,217C 213.74,216.035 213.406,214.868 214.5,213.5C 221.075,214.603 221.075,214.103 214.5,212C 213.78,209.878 212.613,209.378 211,210.5C 210.505,212.473 210.338,214.473 210.5,216.5C 209.178,216.67 208.011,216.337 207,215.5C 204.177,218.061 201.343,218.061 198.5,215.5C 198.5,213.167 198.5,210.833 198.5,208.5C 201.82,205.535 204.653,205.868 207,209.5C 207.483,208.552 207.649,207.552 207.5,206.5C 211.6,207.217 215.6,207.384 219.5,207C 222.125,208.376 222.125,209.542 219.5,210.5 Z M 219.5,210.5 C 218.325,210.719 217.325,210.386 216.5,209.5C 217.86,208.335 218.86,208.668 219.5,210.5 Z M 202.5,208.5 C 203.289,208.783 203.956,209.283 204.5,210C 203.167,210.667 201.833,210.667 200.5,210C 201.416,209.722 202.082,209.222 202.5,208.5 Z M 200.5,213.5 C 202.628,212.371 204.961,212.204 207.5,213C 205.157,214.415 202.823,214.582 200.5,213.5 Z"/></g>
<g><path style="opacity:0.916" fill="#63738a" d="M 398.5,210.5 C 399.172,211.267 400.005,211.934 401,212.5C 401.192,210.423 401.692,208.423 402.5,206.5C 404.343,206.755 406.343,206.922 408.5,207C 410.004,208.491 410.837,210.324 411,212.5C 411.995,211.934 412.828,211.267 413.5,210.5C 411.775,210.157 411.275,209.157 412,207.5C 415.726,205.646 418.392,206.646 420,210.5C 421.334,206.896 423.834,205.729 427.5,207C 428.337,208.011 428.67,209.178 428.5,210.5C 432.679,204.875 436.012,205.375 438.5,212C 429.336,213.41 429.336,214.077 438.5,214C 435.631,218.502 432.464,218.669 429,214.5C 425.64,218.505 422.64,218.172 420,213.5C 419.751,214.624 419.251,215.624 418.5,216.5C 413.973,216.112 409.307,216.112 404.5,216.5C 403.833,217.5 403.167,218.5 402.5,219.5C 401.702,217.922 401.202,216.256 401,214.5C 398.215,218.413 395.382,218.413 392.5,214.5C 394.343,214.245 396.343,214.078 398.5,214C 396.649,213.163 394.816,212.329 393,211.5C 392.527,206.574 394.694,205.24 399.5,207.5C 400.798,209.052 400.465,210.052 398.5,210.5 Z M 432.5,208.5 C 433.756,208.461 434.756,208.961 435.5,210C 434.167,210.667 432.833,210.667 431.5,210C 432.056,209.617 432.389,209.117 432.5,208.5 Z M 428.5,210.5 C 427.608,213.551 425.775,214.551 423,213.5C 422.28,211.888 422.446,210.388 423.5,209C 425.189,209.134 426.856,209.634 428.5,210.5 Z M 413.5,210.5 C 414.543,208.148 415.876,207.981 417.5,210C 416.207,210.49 414.873,210.657 413.5,210.5 Z M 405.5,208.5 C 409.109,210.424 409.275,212.424 406,214.5C 403.074,212.856 402.907,210.856 405.5,208.5 Z M 398.5,210.5 C 397.325,210.719 396.325,210.386 395.5,209.5C 396.86,208.335 397.86,208.668 398.5,210.5 Z M 414.5,212.5 C 415.376,212.369 416.043,212.702 416.5,213.5C 414.192,214.873 413.525,214.54 414.5,212.5 Z"/></g>
<g><path style="opacity:0.776" fill="#637289" d="M 578.5,206.5 C 581.044,206.104 583.211,206.771 585,208.5C 585.497,211.146 585.664,213.813 585.5,216.5C 582.763,217.213 580.096,217.213 577.5,216.5C 576.152,214.389 576.485,212.555 578.5,211C 577.692,210.692 577.025,210.192 576.5,209.5C 577.193,208.482 577.859,207.482 578.5,206.5 Z M 580.5,208.5 C 581.376,208.369 582.043,208.702 582.5,209.5C 580.192,210.873 579.525,210.54 580.5,208.5 Z M 579.5,212.5 C 583.276,212.469 583.443,213.136 580,214.5C 578.316,214.317 578.15,213.65 579.5,212.5 Z"/></g>
<g><path style="opacity:0.812" fill="#637389" d="M 663.5,204.5 C 665.431,205.259 666.931,206.593 668,208.5C 670.667,205.833 673.333,205.833 676,208.5C 676.497,211.146 676.664,213.813 676.5,216.5C 672.938,217.438 669.438,217.771 666,217.5C 664.395,216.899 663.062,215.899 662,214.5C 659.122,218.434 656.289,218.434 653.5,214.5C 653.833,214.167 654.167,213.833 654.5,213.5C 661.075,214.603 661.075,214.103 654.5,212C 653.78,209.878 652.613,209.378 651,210.5C 650.505,212.473 650.338,214.473 650.5,216.5C 649.178,216.67 648.011,216.337 647,215.5C 639.933,218.608 637.266,216.275 639,208.5C 642.012,205.75 644.679,206.083 647,209.5C 647.483,208.552 647.649,207.552 647.5,206.5C 651.853,207.412 656.186,207.746 660.5,207.5C 662.213,207.121 663.213,206.121 663.5,204.5 Z M 670.5,212.5 C 673.797,212.329 674.131,212.995 671.5,214.5C 670.702,214.043 670.369,213.376 670.5,212.5 Z M 640.5,213.5 C 642.628,212.371 644.961,212.204 647.5,213C 645.157,214.415 642.823,214.582 640.5,213.5 Z M 665.5,209.5 C 666.922,209.709 668.255,210.209 669.5,211C 666.65,215.816 665.317,215.316 665.5,209.5 Z M 671.5,208.5 C 672.376,208.369 673.043,208.702 673.5,209.5C 671.192,210.873 670.525,210.54 671.5,208.5 Z M 659.5,210.5 C 660.75,210.423 661.583,209.756 662,208.5C 663.056,213.82 662.223,214.486 659.5,210.5 Z M 659.5,210.5 C 658.325,210.719 657.325,210.386 656.5,209.5C 657.86,208.335 658.86,208.668 659.5,210.5 Z M 642.5,208.5 C 643.289,208.783 643.956,209.283 644.5,210C 643.167,210.667 641.833,210.667 640.5,210C 641.416,209.722 642.082,209.222 642.5,208.5 Z"/></g>
<g><path style="opacity:0.752" fill="#63738a" d="M 330.5,229.5 C 331.5,229.5 332.5,229.5 333.5,229.5C 333.343,230.873 333.51,232.207 334,233.5C 338.411,231.566 340.244,233.066 339.5,238C 339.167,239.5 338.833,241 338.5,242.5C 336.64,232.036 334.973,232.036 333.5,242.5C 331.061,243.053 328.727,243.053 326.5,242.5C 325.752,239.503 325.085,236.503 324.5,233.5C 325.145,232.354 325.978,231.354 327,230.5C 327.71,231.973 328.876,232.64 330.5,232.5C 330.5,231.5 330.5,230.5 330.5,229.5 Z M 327.5,235.5 C 328.5,235.5 329.5,235.5 330.5,235.5C 330.785,237.288 330.452,238.955 329.5,240.5C 327.783,239.332 327.116,237.665 327.5,235.5 Z"/></g>
<g><path style="opacity:0.502" fill="#627289" d="M 479.5,229.5 C 480.5,229.5 481.5,229.5 482.5,229.5C 482.5,233.833 482.5,238.167 482.5,242.5C 481.5,242.5 480.5,242.5 479.5,242.5C 479.5,238.167 479.5,233.833 479.5,229.5 Z"/></g>
<g><path style="opacity:0.752" fill="#63738a" d="M 342.5,232.5 C 345.652,231.959 348.152,232.959 350,235.5C 352.818,231.576 355.818,231.576 359,235.5C 360.305,232.694 362.472,231.86 365.5,233C 367.155,234.444 367.822,236.278 367.5,238.5C 365.396,238.201 363.396,238.534 361.5,239.5C 363.576,240.1 365.576,240.433 367.5,240.5C 364.711,244.434 361.878,244.434 359,240.5C 356.244,244.142 353.077,244.475 349.5,241.5C 342.215,244.764 339.382,242.431 341,234.5C 341.717,233.956 342.217,233.289 342.5,232.5 Z M 344.5,234.5 C 348.109,236.424 348.275,238.424 345,240.5C 341.897,238.888 341.73,236.888 344.5,234.5 Z M 355.5,236.5 C 352.203,236.671 351.869,236.005 354.5,234.5C 355.298,234.957 355.631,235.624 355.5,236.5 Z M 362.5,234.5 C 363.376,234.369 364.043,234.702 364.5,235.5C 362.192,236.873 361.525,236.54 362.5,234.5 Z M 349.5,236.5 C 351.637,237.942 353.97,239.109 356.5,240C 354.153,240.334 351.819,240.167 349.5,239.5C 349.5,238.5 349.5,237.5 349.5,236.5 Z M 355.5,236.5 C 357.355,236.272 358.188,236.939 358,238.5C 357.005,237.934 356.172,237.267 355.5,236.5 Z"/></g>
<g><path style="opacity:0.802" fill="#63738a" d="M 411.5,242.5 C 409.805,240.268 408.638,237.601 408,234.5C 405.835,236.653 405.002,239.319 405.5,242.5C 404.5,242.5 403.5,242.5 402.5,242.5C 402.5,239.167 402.5,235.833 402.5,232.5C 410.336,231.34 413.336,234.673 411.5,242.5 Z"/></g>
<g><path style="opacity:0.742" fill="#637389" d="M 435.5,232.5 C 438.547,231.855 440.713,232.855 442,235.5C 442.368,234.09 443.201,233.09 444.5,232.5C 448.008,233.392 451.675,233.558 455.5,233C 457.155,234.444 457.822,236.278 457.5,238.5C 455.396,238.201 453.396,238.534 451.5,239.5C 453.576,240.1 455.576,240.433 457.5,240.5C 455.271,244.055 452.604,244.388 449.5,241.5C 447.214,233.626 445.88,233.959 445.5,242.5C 441.742,242.907 438.076,242.907 434.5,242.5C 433.152,240.389 433.485,238.555 435.5,237C 434.692,236.692 434.025,236.192 433.5,235.5C 434.193,234.482 434.859,233.482 435.5,232.5 Z M 437.5,234.5 C 438.376,234.369 439.043,234.702 439.5,235.5C 437.192,236.873 436.525,236.54 437.5,234.5 Z M 452.5,234.5 C 453.756,234.461 454.756,234.961 455.5,236C 454.167,236.667 452.833,236.667 451.5,236C 452.056,235.617 452.389,235.117 452.5,234.5 Z M 436.5,238.5 C 440.276,238.469 440.443,239.136 437,240.5C 435.316,240.317 435.15,239.65 436.5,238.5 Z"/></g>
<g><path style="opacity:0.627" fill="#637389" d="M 483.5,229.5 C 484.675,229.281 485.675,229.614 486.5,230.5C 485.893,234.489 485.227,238.489 484.5,242.5C 483.742,238.035 483.408,233.702 483.5,229.5 Z"/></g>
<g><path style="opacity:0.949" fill="#637389" d="M 495.5,242.5 C 493.915,240.169 492.749,237.503 492,234.5C 489.797,236.669 488.964,239.335 489.5,242.5C 488.5,242.5 487.5,242.5 486.5,242.5C 486.335,239.482 486.502,236.482 487,233.5C 487.414,233.043 487.914,232.709 488.5,232.5C 490.602,232.479 492.768,232.813 495,233.5C 495.498,236.482 495.665,239.482 495.5,242.5 Z"/></g>
<g><path style="opacity:0.778" fill="#637389" d="M 509.5,232.5 C 510.5,232.5 511.5,232.5 512.5,232.5C 512.192,234.924 512.526,237.257 513.5,239.5C 514.086,239.291 514.586,238.957 515,238.5C 515.495,236.527 515.662,234.527 515.5,232.5C 516.5,232.5 517.5,232.5 518.5,232.5C 518.351,233.552 518.517,234.552 519,235.5C 521.581,231.943 524.581,231.61 528,234.5C 528.71,233.027 529.876,232.36 531.5,232.5C 531.5,235.167 531.5,237.833 531.5,240.5C 532.5,240.5 533.5,240.5 534.5,240.5C 536.106,229.957 537.106,229.957 537.5,240.5C 538.5,240.5 539.5,240.5 540.5,240.5C 540.719,241.675 540.386,242.675 539.5,243.5C 537.167,242.167 534.833,242.167 532.5,243.5C 530.884,242.885 529.551,241.885 528.5,240.5C 525.38,244.413 522.214,244.413 519,240.5C 517.477,245.51 514.31,247.177 509.5,245.5C 509.281,244.325 509.614,243.325 510.5,242.5C 512.198,243.681 513.865,243.681 515.5,242.5C 513.704,242.731 511.871,242.065 510,240.5C 509.503,237.854 509.336,235.187 509.5,232.5 Z M 522.5,234.5 C 524.564,234.762 525.897,235.929 526.5,238C 525.383,239.892 523.716,240.725 521.5,240.5C 521.325,238.379 521.659,236.379 522.5,234.5 Z"/></g>
<g><path style="opacity:0.764" fill="#63738a" d="M 476.5,229.5 C 477.8,231.223 478.467,233.39 478.5,236C 478.167,238.167 477.833,240.333 477.5,242.5C 476.808,241.975 476.308,241.308 476,240.5C 473.763,244.02 471.096,244.353 468,241.5C 466.867,243.211 465.367,243.711 463.5,243C 463.039,239.656 462.039,236.489 460.5,233.5C 463.087,230.08 465.587,230.414 468,234.5C 471.55,231.554 474.216,232.221 476,236.5C 476.497,234.19 476.663,231.857 476.5,229.5 Z M 470.5,234.5 C 471.756,234.461 472.756,234.961 473.5,236C 472.167,236.667 470.833,236.667 469.5,236C 470.056,235.617 470.389,235.117 470.5,234.5 Z M 464.5,235.5 C 465.552,235.351 466.552,235.517 467.5,236C 466.167,237.333 466.167,238.667 467.5,240C 466.552,240.483 465.552,240.649 464.5,240.5C 464.5,238.833 464.5,237.167 464.5,235.5 Z M 469.5,238.5 C 476.907,238.215 477.574,238.881 471.5,240.5C 470.287,240.253 469.62,239.586 469.5,238.5 Z"/></g>
<g><path style="opacity:0.868" fill="#63738a" d="M 372.5,229.5 C 374.167,229.5 375.833,229.5 377.5,229.5C 377.646,231.942 376.813,232.609 375,231.5C 374.517,232.448 374.351,233.448 374.5,234.5C 377.09,234.604 379.423,233.937 381.5,232.5C 384.078,232.615 385.578,233.949 386,236.5C 387.334,232.896 389.834,231.729 393.5,233C 394.126,233.75 394.626,234.584 395,235.5C 395.495,233.527 395.662,231.527 395.5,229.5C 398.073,229.148 400.406,229.648 402.5,231C 401.864,234.79 401.197,238.623 400.5,242.5C 399.175,227.893 398.508,227.893 398.5,242.5C 397.178,242.67 396.011,242.337 395,241.5C 391.729,244.197 388.729,243.864 386,240.5C 383.763,244.02 381.096,244.353 378,241.5C 375.935,234.959 374.435,235.292 373.5,242.5C 372.881,239.968 371.881,237.635 370.5,235.5C 371.025,234.808 371.692,234.308 372.5,234C 371.587,232.586 371.587,231.086 372.5,229.5 Z M 390.5,234.5 C 391.289,234.783 391.956,235.283 392.5,236C 391.167,236.667 389.833,236.667 388.5,236C 389.416,235.722 390.082,235.222 390.5,234.5 Z M 380.5,234.5 C 381.756,234.461 382.756,234.961 383.5,236C 382.167,236.667 380.833,236.667 379.5,236C 380.056,235.617 380.389,235.117 380.5,234.5 Z M 379.5,238.5 C 386.907,238.215 387.574,238.881 381.5,240.5C 380.287,240.253 379.62,239.586 379.5,238.5 Z M 388.5,239.5 C 390.628,238.371 392.961,238.204 395.5,239C 393.157,240.415 390.823,240.582 388.5,239.5 Z"/></g>
<g><path style="opacity:0.731" fill="#63738a" d="M 427.5,236.5 C 431.439,238.514 431.439,240.681 427.5,243C 425.433,243.536 423.599,243.036 422,241.5C 420.291,246.391 417.125,247.558 412.5,245C 411.748,244.329 411.414,243.496 411.5,242.5C 411.943,239.186 412.943,236.019 414.5,233C 418.932,232.933 423.265,232.933 427.5,233C 430.125,234.376 430.125,235.542 427.5,236.5 Z M 427.5,236.5 C 426.325,236.719 425.325,236.386 424.5,235.5C 425.86,234.335 426.86,234.668 427.5,236.5 Z M 420.5,234.5 C 421.249,235.531 421.915,236.698 422.5,238C 424.246,238.471 425.913,239.138 427.5,240C 423.582,239.918 419.582,239.918 415.5,240C 419.459,240.209 421.126,238.375 420.5,234.5 Z M 415.5,234.5 C 416.995,234.415 417.995,235.081 418.5,236.5C 415.623,237.911 414.623,237.244 415.5,234.5 Z"/></g>
<g><path style="opacity:0.958" fill="#637389" d="M 495.5,242.5 C 496.355,239.44 497.355,236.273 498.5,233C 500.902,232.186 503.235,232.353 505.5,233.5C 504.855,234.732 504.689,236.065 505,237.5C 503.509,239.004 501.676,239.837 499.5,240C 501.473,240.495 503.473,240.662 505.5,240.5C 505.5,242.167 505.5,243.833 505.5,245.5C 503.181,246.167 500.847,246.334 498.5,246C 496.574,245.578 495.574,244.411 495.5,242.5 Z M 499.5,234.5 C 500.995,234.415 501.995,235.081 502.5,236.5C 499.623,237.911 498.623,237.244 499.5,234.5 Z"/></g>
<g><path style="opacity:0.999" fill="#db2727" d="M 612.5,298.5 C 611.833,297.167 611.167,295.833 610.5,294.5C 608.508,284.34 602.508,277.84 592.5,275C 485.833,274.333 379.167,274.333 272.5,275C 262.944,277.723 256.944,283.889 254.5,293.5C 253.833,295.167 253.167,296.833 252.5,298.5C 252.967,286.208 258.967,278.041 270.5,274C 378.5,273.333 486.5,273.333 594.5,274C 606.217,277.923 612.217,286.09 612.5,298.5 Z"/></g>
<g><path style="opacity:1" fill="#f77171" d="M 610.5,294.5 C 610.665,297.85 610.498,301.183 610,304.5C 609.392,306.066 608.558,307.4 607.5,308.5C 604.372,311.97 600.705,314.636 596.5,316.5C 594.833,316.5 593.167,316.5 591.5,316.5C 484.166,316.667 376.833,316.5 269.5,316C 266.017,314.008 262.684,311.842 259.5,309.5C 258.071,306.304 256.405,303.304 254.5,300.5C 254.5,298.167 254.5,295.833 254.5,293.5C 256.944,283.889 262.944,277.723 272.5,275C 379.167,274.333 485.833,274.333 592.5,275C 602.508,277.84 608.508,284.34 610.5,294.5 Z"/></g>
<g><path style="opacity:1" fill="#fff6f5" d="M 572.5,291.5 C 581.316,294.769 581.649,298.769 573.5,303.5C 571.512,302.711 571.179,301.545 572.5,300C 569.854,299.503 567.187,299.336 564.5,299.5C 564.33,298.178 564.663,297.011 565.5,296C 567.833,295.667 570.167,295.333 572.5,295C 571.316,293.855 571.316,292.688 572.5,291.5 Z"/></g>
<g><path style="opacity:1" fill="#fddbdb" d="M 286.5,292.5 C 287.787,293.871 288.453,295.705 288.5,298C 288.167,299.833 287.833,301.667 287.5,303.5C 286.511,299.893 286.177,296.226 286.5,292.5 Z"/></g>
<g><path style="opacity:1" fill="#fb9b9a" d="M 421.5,292.5 C 421.5,295.833 421.5,299.167 421.5,302.5C 421.167,302.5 420.833,302.5 420.5,302.5C 419.081,301.549 417.415,301.216 415.5,301.5C 415.5,300.167 415.5,298.833 415.5,297.5C 417.143,297.48 418.476,298.147 419.5,299.5C 420.562,298.575 420.562,297.575 419.5,296.5C 420.167,295.167 420.833,293.833 421.5,292.5 Z"/></g>
<g><path style="opacity:1" fill="#fee9e9" d="M 462.5,292.5 C 464.048,292.821 464.715,293.821 464.5,295.5C 466.144,295.286 467.644,295.62 469,296.5C 469.814,298.902 469.647,301.235 468.5,303.5C 467.534,301.604 467.201,299.604 467.5,297.5C 466.5,297.5 465.5,297.5 464.5,297.5C 464.799,299.604 464.466,301.604 463.5,303.5C 462.511,299.893 462.177,296.226 462.5,292.5 Z"/></g>
<g><path style="opacity:1" fill="#feecec" d="M 470.5,292.5 C 472.337,292.639 472.67,293.306 471.5,294.5C 470.702,294.043 470.369,293.376 470.5,292.5 Z"/></g>
<g><path style="opacity:1" fill="#fb9a99" d="M 548.5,292.5 C 548.5,295.833 548.5,299.167 548.5,302.5C 547.833,302.833 547.167,303.167 546.5,303.5C 545.817,301.824 544.483,301.157 542.5,301.5C 542.5,300.167 542.5,298.833 542.5,297.5C 544.143,297.48 545.476,298.147 546.5,299.5C 547.562,298.575 547.562,297.575 546.5,296.5C 547.167,295.167 547.833,293.833 548.5,292.5 Z"/></g>
<g><path style="opacity:1" fill="#feebeb" d="M 289.5,292.5 C 290.376,292.369 291.043,292.702 291.5,293.5C 289.993,297.355 289.326,297.021 289.5,292.5 Z"/></g>
<g><path style="opacity:1" fill="#feeaea" d="M 349.5,292.5 C 350.249,293.531 350.915,294.698 351.5,296C 350.167,298.333 350.167,300.667 351.5,303C 350.552,303.483 349.552,303.649 348.5,303.5C 348.768,300.881 348.435,298.381 347.5,296C 348.305,294.887 348.972,293.721 349.5,292.5 Z"/></g>
<g><path style="opacity:1" fill="#fee7e7" d="M 379.5,292.5 C 381.337,292.639 381.67,293.306 380.5,294.5C 379.702,294.043 379.369,293.376 379.5,292.5 Z"/></g>
<g><path style="opacity:1" fill="#fdc7c7" d="M 437.5,292.5 C 439.337,292.639 439.67,293.306 438.5,294.5C 437.702,294.043 437.369,293.376 437.5,292.5 Z"/></g>
<g><path style="opacity:1" fill="#fee7e7" d="M 495.5,292.5 C 497.337,292.639 497.67,293.306 496.5,294.5C 495.702,294.043 495.369,293.376 495.5,292.5 Z"/></g>
<g><path style="opacity:1" fill="#fef1f1" d="M 335.5,292.5 C 335.5,296.167 335.5,299.833 335.5,303.5C 333.606,303.414 331.606,303.081 329.5,302.5C 327.613,297.574 329.113,295.574 334,296.5C 334.21,294.942 334.71,293.609 335.5,292.5 Z"/></g>
<g><path style="opacity:1" fill="#fbb9b9" d="M 335.5,292.5 C 336.404,293.209 336.737,294.209 336.5,295.5C 336.833,296.167 337.167,296.833 337.5,297.5C 336.833,299.5 336.167,301.5 335.5,303.5C 335.5,299.833 335.5,296.167 335.5,292.5 Z"/></g>
<g><path style="opacity:1" fill="#feefef" d="M 382.5,292.5 C 384.237,295.008 385.07,298.008 385,301.5C 385.084,297.057 387.084,295.39 391,296.5C 391.219,295.062 391.719,293.729 392.5,292.5C 393.833,296.167 393.833,299.833 392.5,303.5C 389.324,303.275 386.157,302.942 383,302.5C 382.502,299.183 382.335,295.85 382.5,292.5 Z"/></g>
<g><path style="opacity:1" fill="#feeded" d="M 503.5,292.5 C 505.048,292.821 505.715,293.821 505.5,295.5C 507.144,295.286 508.644,295.62 510,296.5C 510.814,298.902 510.647,301.235 509.5,303.5C 508.534,301.604 508.201,299.604 508.5,297.5C 507.5,297.5 506.5,297.5 505.5,297.5C 505.799,299.604 505.466,301.604 504.5,303.5C 503.511,299.893 503.177,296.226 503.5,292.5 Z"/></g>
<g><path style="opacity:1" fill="#fee9e9" d="M 499.5,292.5 C 501.026,293.105 502.026,294.271 502.5,296C 501.167,298.333 501.167,300.667 502.5,303C 501.552,303.483 500.552,303.649 499.5,303.5C 499.114,295.602 498.114,295.602 496.5,303.5C 495.692,301.577 495.192,299.577 495,297.5C 494.457,299.631 493.624,301.631 492.5,303.5C 491.416,302.335 490.583,301.002 490,299.5C 489.077,300.759 488.243,302.092 487.5,303.5C 485.347,301.071 484.681,298.404 485.5,295.5C 486.833,299.5 488.167,299.5 489.5,295.5C 490.971,296.381 491.804,297.714 492,299.5C 493.342,296.206 495.842,294.872 499.5,295.5C 499.5,294.5 499.5,293.5 499.5,292.5 Z"/></g>
<g><path style="opacity:1" fill="#fee6e6" d="M 378.5,295.5 C 378.5,298.167 378.5,300.833 378.5,303.5C 375.635,303.945 373.135,303.278 371,301.5C 368.865,303.278 366.365,303.945 363.5,303.5C 363.177,299.774 363.511,296.107 364.5,292.5C 365.281,293.729 365.781,295.062 366,296.5C 367.938,295.14 369.604,295.473 371,297.5C 371.308,296.692 371.808,296.025 372.5,295.5C 373.466,297.396 373.799,299.396 373.5,301.5C 374.5,301.5 375.5,301.5 376.5,301.5C 376.025,298.918 376.692,296.918 378.5,295.5 Z"/></g>
<g><path style="opacity:1" fill="#fee5e4" d="M 421.5,292.5 C 423.237,295.008 424.07,298.008 424,301.5C 424.976,299.113 426.809,297.946 429.5,298C 427.833,297.667 426.167,297.333 424.5,297C 426.541,295.259 428.708,295.092 431,296.5C 431.833,295.5 432.667,294.5 433.5,293.5C 434.265,294.612 435.265,295.279 436.5,295.5C 433.946,298.105 433.946,300.771 436.5,303.5C 435.178,303.67 434.011,303.337 433,302.5C 432.019,296.136 431.519,296.469 431.5,303.5C 427.808,303.307 424.475,302.974 421.5,302.5C 421.5,299.167 421.5,295.833 421.5,292.5 Z"/></g>
<g><path style="opacity:1" fill="#ffdad9" d="M 548.5,292.5 C 549.931,292.881 550.764,293.881 551,295.5C 551.612,292.968 553.112,292.135 555.5,293C 552.833,294 552.833,295 555.5,296C 553.709,298.106 553.042,300.606 553.5,303.5C 551.585,303.784 549.919,303.451 548.5,302.5C 548.5,299.167 548.5,295.833 548.5,292.5 Z"/></g>
<g><path style="opacity:0.988" fill="#a71e1e" d="M 254.5,293.5 C 254.5,295.833 254.5,298.167 254.5,300.5C 256.506,310.673 262.506,317.173 272.5,320C 378.833,320.667 485.167,320.667 591.5,320C 598.965,319.023 604.298,315.189 607.5,308.5C 608.558,307.4 609.392,306.066 610,304.5C 610.498,301.183 610.665,297.85 610.5,294.5C 611.167,295.833 611.833,297.167 612.5,298.5C 611.13,309.755 605.13,317.255 594.5,321C 486.5,321.667 378.5,321.667 270.5,321C 259.384,317.606 253.384,310.106 252.5,298.5C 253.167,296.833 253.833,295.167 254.5,293.5 Z"/></g>
<g><path style="opacity:1" fill="#bf5656" d="M 254.5,300.5 C 256.405,303.304 258.071,306.304 259.5,309.5C 262.185,314.193 266.185,316.859 271.5,317.5C 378.666,318.666 485.999,318.833 593.5,318C 594.737,317.768 595.737,317.268 596.5,316.5C 600.705,314.636 604.372,311.97 607.5,308.5C 604.298,315.189 598.965,319.023 591.5,320C 485.167,320.667 378.833,320.667 272.5,320C 262.506,317.173 256.506,310.673 254.5,300.5 Z"/></g>
<g><path style="opacity:1" fill="#cf5e5e" d="M 591.5,316.5 C 593.167,316.5 594.833,316.5 596.5,316.5C 595.737,317.268 594.737,317.768 593.5,318C 485.999,318.833 378.666,318.666 271.5,317.5C 378.335,317.833 485.001,317.499 591.5,316.5 Z"/></g>
<g><path style="opacity:1" fill="#df6565" d="M 259.5,309.5 C 262.684,311.842 266.017,314.008 269.5,316C 376.833,316.5 484.166,316.667 591.5,316.5C 485.001,317.499 378.335,317.833 271.5,317.5C 266.185,316.859 262.185,314.193 259.5,309.5 Z"/></g>
<g><path style="opacity:1" fill="#feecec" d="M 526.5,295.5 C 528.284,296.574 529.451,298.24 530,300.5C 530.123,297.234 531.79,295.568 535,295.5C 536.728,295.454 538.228,295.954 539.5,297C 534.648,296.534 534.481,297.367 539,299.5C 539.611,303.088 538.111,304.254 534.5,303C 534.167,302.667 533.833,302.333 533.5,302C 534.951,302.263 536.284,302.096 537.5,301.5C 536.135,300.059 534.635,298.726 533,297.5C 531.994,300.845 530.494,303.845 528.5,306.5C 528.746,303.934 528.413,301.268 527.5,298.5C 526.89,297.609 526.557,296.609 526.5,295.5 Z"/></g>
<g><path style="opacity:1" fill="#fee8e7" d="M 473.5,295.5 C 479.674,294.173 481.841,296.506 480,302.5C 478.644,303.38 477.144,303.714 475.5,303.5C 475.719,304.675 475.386,305.675 474.5,306.5C 473.511,302.893 473.177,299.226 473.5,295.5 Z"/></g>
<g><path style="opacity:1" fill="#fa9493" d="M 426.5,300.5 C 429.797,300.329 430.131,300.995 427.5,302.5C 426.702,302.043 426.369,301.376 426.5,300.5 Z"/></g>
<g><path style="opacity:1" fill="#feecec" d="M 336.5,295.5 C 338.335,296.122 339.502,297.456 340,299.5C 340.923,298.241 341.757,296.908 342.5,295.5C 342.988,299.398 341.988,303.065 339.5,306.5C 339.845,303.439 339.178,300.439 337.5,297.5C 337.167,296.833 336.833,296.167 336.5,295.5 Z"/></g>
<g><path style="opacity:1" fill="#fee3e3" d="M 546.5,296.5 C 547.562,297.575 547.562,298.575 546.5,299.5C 545.476,298.147 544.143,297.48 542.5,297.5C 542.5,298.833 542.5,300.167 542.5,301.5C 544.483,301.157 545.817,301.824 546.5,303.5C 540.974,303.62 539.307,301.12 541.5,296C 543.387,295.22 545.054,295.387 546.5,296.5 Z"/></g>
<g><path style="opacity:1" fill="#fbb4b3" d="M 524.5,295.5 C 525.167,295.5 525.833,295.5 526.5,295.5C 526.557,296.609 526.89,297.609 527.5,298.5C 526.833,300.167 526.167,301.833 525.5,303.5C 525.721,300.721 525.388,298.054 524.5,295.5 Z"/></g>
<g><path style="opacity:1" fill="#fef0f0" d="M 447.5,297.5 C 447.634,299.292 447.301,300.958 446.5,302.5C 444.099,304.062 442.099,303.729 440.5,301.5C 439.766,300.292 439.433,298.959 439.5,297.5C 442.167,294.833 444.833,294.833 447.5,297.5 Z"/></g>
<g><path style="opacity:1" fill="#ffd6d5" d="M 308.5,295.5 C 311.935,296.224 315.269,296.39 318.5,296C 319.618,297.074 320.618,298.24 321.5,299.5C 322.795,298.902 324.128,298.402 325.5,298C 324.062,297.781 322.729,297.281 321.5,296.5C 323.074,295.369 324.741,295.202 326.5,296C 327.602,298.401 327.769,300.901 327,303.5C 323.023,302.668 318.856,302.501 314.5,303C 313.594,301.301 313.261,299.467 313.5,297.5C 312.5,297.5 311.5,297.5 310.5,297.5C 310.799,299.604 310.466,301.604 309.5,303.5C 308.52,300.914 308.187,298.247 308.5,295.5 Z"/></g>
<g><path style="opacity:1" fill="#f87171" d="M 475.5,297.5 C 476.5,297.5 477.5,297.5 478.5,297.5C 478.5,298.833 478.5,300.167 478.5,301.5C 477.5,301.5 476.5,301.5 475.5,301.5C 475.5,300.167 475.5,298.833 475.5,297.5 Z"/></g>
<g><path style="opacity:1" fill="#f97f7e" d="M 441.5,297.5 C 442.833,297.5 444.167,297.5 445.5,297.5C 445.884,299.665 445.217,301.332 443.5,302.5C 441.783,301.332 441.116,299.665 441.5,297.5 Z"/></g>
<g><path style="opacity:1" fill="#faa2a1" d="M 436.5,295.5 C 436.833,295.5 437.167,295.5 437.5,295.5C 437.5,298.167 437.5,300.833 437.5,303.5C 437.167,303.5 436.833,303.5 436.5,303.5C 433.946,300.771 433.946,298.105 436.5,295.5 Z"/></g>
<g><path style="opacity:1" fill="#fee6e6" d="M 419.5,296.5 C 420.562,297.575 420.562,298.575 419.5,299.5C 418.476,298.147 417.143,297.48 415.5,297.5C 415.5,298.833 415.5,300.167 415.5,301.5C 417.415,301.216 419.081,301.549 420.5,302.5C 415.205,304.914 412.871,303.247 413.5,297.5C 412.5,297.5 411.5,297.5 410.5,297.5C 410.799,299.604 410.466,301.604 409.5,303.5C 408.52,300.914 408.187,298.247 408.5,295.5C 412.351,296.353 416.018,296.686 419.5,296.5 Z"/></g>
<g><path style="opacity:1" fill="#f97a7a" d="M 387.5,297.5 C 388.833,297.5 390.167,297.5 391.5,297.5C 391.5,298.833 391.5,300.167 391.5,301.5C 390.167,301.5 388.833,301.5 387.5,301.5C 387.5,300.167 387.5,298.833 387.5,297.5 Z"/></g>
<g><path style="opacity:1" fill="#f87777" d="M 365.5,297.5 C 368.5,297.167 369.833,298.5 369.5,301.5C 368.167,301.5 366.833,301.5 365.5,301.5C 365.5,300.167 365.5,298.833 365.5,297.5 Z"/></g>
<g><path style="opacity:1" fill="#f87978" d="M 330.5,297.5 C 333.5,297.167 334.833,298.5 334.5,301.5C 333.167,301.5 331.833,301.5 330.5,301.5C 330.5,300.167 330.5,298.833 330.5,297.5 Z"/></g>
<g><path style="opacity:1" fill="#fef2f2" d="M 524.5,295.5 C 525.388,298.054 525.721,300.721 525.5,303.5C 524.539,301.735 524.205,299.735 524.5,297.5C 523.5,297.5 522.5,297.5 521.5,297.5C 520.833,305.5 520.167,305.5 519.5,297.5C 518.5,297.5 517.5,297.5 516.5,297.5C 516.799,299.604 516.466,301.604 515.5,303.5C 514.52,300.914 514.187,298.247 514.5,295.5C 517.993,295.998 521.326,295.998 524.5,295.5 Z"/></g>
<g><path style="opacity:1" fill="#fdeaea" d="M 470.5,295.5 C 471.748,296.334 472.415,297.667 472.5,299.5C 472.167,300.833 471.833,302.167 471.5,303.5C 470.52,300.914 470.187,298.247 470.5,295.5 Z"/></g>
<g><path style="opacity:1" fill="#fee9e8" d="M 448.5,295.5 C 452.586,296.091 456.586,296.257 460.5,296C 460.833,296.333 461.167,296.667 461.5,297C 456.648,296.534 456.481,297.367 461,299.5C 461.49,300.793 461.657,302.127 461.5,303.5C 458.989,303.162 456.655,303.162 454.5,303.5C 453.534,301.604 453.201,299.604 453.5,297.5C 452.5,297.5 451.5,297.5 450.5,297.5C 450.975,300.082 450.308,302.082 448.5,303.5C 448.5,300.833 448.5,298.167 448.5,295.5 Z"/></g>
<g><path style="opacity:1" fill="#fa8b8b" d="M 455.5,298.5 C 457.14,299.32 458.807,300.153 460.5,301C 457.644,302.906 455.977,302.073 455.5,298.5 Z"/></g>
<g><path style="opacity:1" fill="#faa3a3" d="M 448.5,295.5 C 448.5,298.167 448.5,300.833 448.5,303.5C 447.833,303.167 447.167,302.833 446.5,302.5C 447.301,300.958 447.634,299.292 447.5,297.5C 447.328,296.508 447.662,295.842 448.5,295.5 Z"/></g>
<g><path style="opacity:1" fill="#fec3c2" d="M 437.5,295.5 C 438.833,295.5 439.5,296.167 439.5,297.5C 439.433,298.959 439.766,300.292 440.5,301.5C 439.778,302.551 438.778,303.218 437.5,303.5C 437.5,300.833 437.5,298.167 437.5,295.5 Z"/></g>
<g><path style="opacity:1" fill="#fee8e8" d="M 401.5,302.5 C 400.432,303.434 399.099,303.768 397.5,303.5C 396.874,299.625 398.541,297.791 402.5,298C 400.833,297.667 399.167,297.333 397.5,297C 404.225,294.228 406.225,296.395 403.5,303.5C 402.817,303.137 402.15,302.804 401.5,302.5 Z"/></g>
<g><path style="opacity:1" fill="#fa9392" d="M 401.5,302.5 C 400.624,302.631 399.957,302.298 399.5,301.5C 401.808,300.127 402.475,300.46 401.5,302.5 Z"/></g>
<g><path style="opacity:1" fill="#fdcdcc" d="M 378.5,295.5 C 379.5,295.5 380.5,295.5 381.5,295.5C 381.5,298.167 381.5,300.833 381.5,303.5C 380.5,303.5 379.5,303.5 378.5,303.5C 378.5,300.833 378.5,298.167 378.5,295.5 Z"/></g>
<g><path style="opacity:1" fill="#feebeb" d="M 292.5,295.5 C 296.395,295.777 300.062,296.11 303.5,296.5C 304.724,298.839 304.724,301.172 303.5,303.5C 302.534,301.604 302.201,299.604 302.5,297.5C 301.5,297.5 300.5,297.5 299.5,297.5C 298.833,305.5 298.167,305.5 297.5,297.5C 296.5,297.5 295.5,297.5 294.5,297.5C 294.799,299.604 294.466,301.604 293.5,303.5C 292.52,300.914 292.187,298.247 292.5,295.5 Z"/></g>
<g><path style="opacity:1" fill="#fee3e3" d="M 353.5,295.5 C 359.313,295.062 360.98,297.562 358.5,303C 352.593,303.746 350.927,301.246 353.5,295.5 Z"/></g>
<g><path style="opacity:1" fill="#f97a79" d="M 354.5,297.5 C 355.5,297.5 356.5,297.5 357.5,297.5C 357.5,298.833 357.5,300.167 357.5,301.5C 356.167,301.5 354.833,301.5 353.5,301.5C 353.433,300.041 353.766,298.708 354.5,297.5 Z"/></g>
<g><path style="opacity:0.53" fill="#010516" d="M 343.5,338.5 C 341.938,340.372 340.938,342.705 340.5,345.5C 339.526,343.257 339.192,340.924 339.5,338.5C 335.556,337.726 335.723,337.059 340,336.5C 341.681,336.608 342.848,337.275 343.5,338.5 Z"/></g>
<g><path style="opacity:0.64" fill="#010516" d="M 403.5,336.5 C 405.624,337.031 407.124,338.365 408,340.5C 408.219,339.062 408.719,337.729 409.5,336.5C 410.484,339.428 410.817,342.428 410.5,345.5C 407.95,345.439 406.45,344.106 406,341.5C 405.781,342.938 405.281,344.271 404.5,345.5C 403.516,342.572 403.183,339.572 403.5,336.5 Z"/></g>
<g><path style="opacity:0.576" fill="#010516" d="M 421.5,336.5 C 425.384,337.197 429.217,338.197 433,339.5C 434.938,338.14 436.604,338.473 438,340.5C 440.045,339.027 442.212,337.693 444.5,336.5C 445.647,336.818 446.481,337.484 447,338.5C 448.68,337.397 450.18,337.73 451.5,339.5C 448.921,341.438 448.921,343.271 451.5,345C 450.207,345.49 448.873,345.657 447.5,345.5C 447.167,338.833 446.833,338.833 446.5,345.5C 443.396,346.841 440.562,346.507 438,344.5C 436.225,347.044 434.392,347.044 432.5,344.5C 431.902,343.205 431.402,341.872 431,340.5C 430.798,342.256 430.298,343.922 429.5,345.5C 427.836,344.777 426.169,345.11 424.5,346.5C 420.401,344.272 419.401,340.939 421.5,336.5 Z M 422.5,338.5 C 428.865,339.419 429.532,341.419 424.5,344.5C 422.717,342.977 422.051,340.977 422.5,338.5 Z M 440.5,340.5 C 441.586,340.62 442.253,341.287 442.5,342.5C 442.167,343.167 441.833,343.833 441.5,344.5C 440.571,343.311 440.238,341.978 440.5,340.5 Z"/></g>
<g><path style="opacity:0.559" fill="#010516" d="M 454.5,336.5 C 457.652,335.959 460.152,336.959 462,339.5C 465.333,339.5 468.667,339.5 472,339.5C 473.693,338.816 475.193,337.816 476.5,336.5C 477.833,339.5 477.833,342.5 476.5,345.5C 475.167,346.833 473.833,346.833 472.5,345.5C 470.907,338.951 469.907,338.951 469.5,345.5C 467.409,345.318 465.409,345.652 463.5,346.5C 461.674,344.219 459.674,344.219 457.5,346.5C 456.5,346 455.5,345.5 454.5,345C 453.321,342.204 453.321,339.371 454.5,336.5 Z M 455.5,338.5 C 458.14,338.954 460.473,340.121 462.5,342C 460.579,342.36 458.912,343.194 457.5,344.5C 455.717,342.977 455.051,340.977 455.5,338.5 Z M 473.5,340.5 C 474.586,340.62 475.253,341.287 475.5,342.5C 475.167,343.167 474.833,343.833 474.5,344.5C 473.571,343.311 473.238,341.978 473.5,340.5 Z"/></g>
<g><path style="opacity:0.619" fill="#010516" d="M 480.5,336.5 C 482.527,336.338 484.527,336.505 486.5,337C 487.191,338.067 487.691,339.234 488,340.5C 490,337.833 492,337.833 494,340.5C 495.789,338.771 497.956,338.104 500.5,338.5C 500.817,341.572 500.484,344.572 499.5,347.5C 497.587,346.627 495.753,345.627 494,344.5C 492.112,346.922 490.112,346.922 488,344.5C 487.667,344.833 487.333,345.167 487,345.5C 486.092,343.561 484.592,342.561 482.5,342.5C 482.719,343.675 482.386,344.675 481.5,345.5C 480.516,342.572 480.183,339.572 480.5,336.5 Z M 482.5,338.5 C 483.675,338.281 484.675,338.614 485.5,339.5C 483.948,340.798 482.948,340.465 482.5,338.5 Z M 496.5,340.5 C 498.97,341.36 499.137,342.694 497,344.5C 495.666,343.122 495.499,341.789 496.5,340.5 Z"/></g>
<g><path style="opacity:0.552" fill="#010516" d="M 507.5,336.5 C 511.411,338.412 515.244,339.746 519,340.5C 520.875,339.258 522.709,337.924 524.5,336.5C 525.474,338.743 525.808,341.076 525.5,343.5C 528.988,343.899 529.154,344.566 526,345.5C 523.418,347.047 521.084,346.714 519,344.5C 517.225,347.044 515.392,347.044 513.5,344.5C 512.77,342.994 512.437,341.66 512.5,340.5C 511.548,342.045 511.215,343.712 511.5,345.5C 510.167,345.5 508.833,345.5 507.5,345.5C 507.5,342.5 507.5,339.5 507.5,336.5 Z M 521.5,340.5 C 522.586,340.62 523.253,341.287 523.5,342.5C 523.167,343.167 522.833,343.833 522.5,344.5C 521.571,343.311 521.238,341.978 521.5,340.5 Z"/></g>
<g><path style="opacity:0.519" fill="#010516" d="M 343.5,338.5 C 346.596,337.907 348.929,338.907 350.5,341.5C 351.167,340.5 351.833,339.5 352.5,338.5C 353.231,341.514 352.564,344.347 350.5,347C 347.049,347.747 346.716,347.08 349.5,345C 348.624,343.414 347.624,341.914 346.5,340.5C 345.833,342.167 345.167,343.833 344.5,345.5C 343.526,343.257 343.192,340.924 343.5,338.5 Z"/></g>
<g><path style="opacity:0.534" fill="#010516" d="M 357.5,336.5 C 358.5,336.5 359.5,336.5 360.5,336.5C 360.351,337.552 360.517,338.552 361,339.5C 364.241,340.645 367.408,340.645 370.5,339.5C 369.173,341.311 368.173,343.311 367.5,345.5C 366.038,344.529 364.705,344.862 363.5,346.5C 360.316,345.784 358.816,343.784 359,340.5C 358.798,342.256 358.298,343.922 357.5,345.5C 355.548,342.272 355.548,339.272 357.5,336.5 Z M 361.5,340.5 C 364.569,340.963 365.069,342.296 363,344.5C 361.812,343.437 361.312,342.103 361.5,340.5 Z"/></g>
<g><path style="opacity:0.59" fill="#000516" d="M 374.5,336.5 C 378.819,338.27 382.986,339.603 387,340.5C 391.514,337.659 393.514,338.993 393,344.5C 391.112,346.922 389.112,346.922 387,344.5C 382.911,346.95 380.577,345.616 380,340.5C 379.115,347.078 377.948,347.078 376.5,340.5C 375.833,342.167 375.167,343.833 374.5,345.5C 372.548,342.272 372.548,339.272 374.5,336.5 Z"/></g>
<g><path style="opacity:0.565" fill="#010516" d="M 412.5,338.5 C 417.378,338.535 418.711,340.868 416.5,345.5C 413.56,346.859 411.894,345.859 411.5,342.5C 411.623,341.075 411.957,339.742 412.5,338.5 Z M 413.5,340.5 C 414.586,340.62 415.253,341.287 415.5,342.5C 415.167,343.167 414.833,343.833 414.5,344.5C 413.571,343.311 413.238,341.978 413.5,340.5 Z"/></g>
<g><path style="opacity:0.802" fill="#010616" d="M 501.5,338.5 C 503.091,346.264 504.591,346.264 506,338.5C 507.102,341.905 506.268,344.572 503.5,346.5C 502.914,346.291 502.414,345.957 502,345.5C 501.503,343.19 501.337,340.857 501.5,338.5 Z"/></g>
<g><path style="opacity:0.776" fill="#020516" d="M 395.5,342.5 C 396.946,341.387 398.613,341.22 400.5,342C 398.866,342.494 397.199,342.66 395.5,342.5 Z"/></g>
</svg>
